<mxfile host="app.diagrams.net" modified="2023-10-13T02:48:50.656Z" agent="Mozilla/5.0 (Windows NT 10.0; Win64; x64) AppleWebKit/537.36 (KHTML, like Gecko) Chrome/117.0.0.0 Safari/537.36" etag="Ts9pDmzfkRrPspXEQqTU" version="22.0.4" type="github">
  <diagram name="第 1 页" id="52QXw2NYSpRmnwmRipbn">
    <mxGraphModel dx="1585" dy="634" grid="0" gridSize="10" guides="1" tooltips="1" connect="1" arrows="1" fold="1" page="0" pageScale="1" pageWidth="827" pageHeight="1169" math="0" shadow="0">
      <root>
        <mxCell id="0" />
        <mxCell id="1" parent="0" />
        <mxCell id="_CxWsj8pHRZtv5aG9njl-158" value="" style="rounded=0;whiteSpace=wrap;html=1;fillColor=#fad7ac;strokeColor=#b46504;" vertex="1" parent="1">
          <mxGeometry x="393" y="937" width="236" height="186" as="geometry" />
        </mxCell>
        <mxCell id="_CxWsj8pHRZtv5aG9njl-157" value="" style="rounded=0;whiteSpace=wrap;html=1;fillColor=#fad7ac;strokeColor=#b46504;" vertex="1" parent="1">
          <mxGeometry x="35" y="937" width="249" height="186" as="geometry" />
        </mxCell>
        <mxCell id="_CxWsj8pHRZtv5aG9njl-113" value="&lt;p&gt;&lt;br&gt;&lt;/p&gt;" style="rounded=1;whiteSpace=wrap;html=1;fillColor=#bac8d3;strokeColor=#23445d;" vertex="1" parent="1">
          <mxGeometry x="-144" y="725" width="1035" height="174" as="geometry" />
        </mxCell>
        <mxCell id="_CxWsj8pHRZtv5aG9njl-65" value="" style="whiteSpace=wrap;html=1;aspect=fixed;strokeColor=#6c8ebf;fillColor=#dae8fc;" vertex="1" parent="1">
          <mxGeometry x="152" y="649" width="13" height="13" as="geometry" />
        </mxCell>
        <mxCell id="_CxWsj8pHRZtv5aG9njl-66" value="" style="whiteSpace=wrap;html=1;aspect=fixed;strokeColor=#6c8ebf;fillColor=#dae8fc;" vertex="1" parent="1">
          <mxGeometry x="165" y="649" width="13" height="13" as="geometry" />
        </mxCell>
        <mxCell id="_CxWsj8pHRZtv5aG9njl-67" value="" style="whiteSpace=wrap;html=1;aspect=fixed;strokeColor=#6c8ebf;fillColor=#dae8fc;" vertex="1" parent="1">
          <mxGeometry x="178" y="649" width="13" height="13" as="geometry" />
        </mxCell>
        <mxCell id="_CxWsj8pHRZtv5aG9njl-68" value="" style="whiteSpace=wrap;html=1;aspect=fixed;strokeColor=#6c8ebf;fillColor=#dae8fc;" vertex="1" parent="1">
          <mxGeometry x="191" y="649" width="13" height="13" as="geometry" />
        </mxCell>
        <mxCell id="_CxWsj8pHRZtv5aG9njl-69" value="" style="whiteSpace=wrap;html=1;aspect=fixed;strokeColor=#6c8ebf;fillColor=#dae8fc;" vertex="1" parent="1">
          <mxGeometry x="152" y="662" width="13" height="13" as="geometry" />
        </mxCell>
        <mxCell id="_CxWsj8pHRZtv5aG9njl-70" value="" style="whiteSpace=wrap;html=1;aspect=fixed;strokeColor=#6c8ebf;fillColor=#dae8fc;" vertex="1" parent="1">
          <mxGeometry x="165" y="662" width="13" height="13" as="geometry" />
        </mxCell>
        <mxCell id="_CxWsj8pHRZtv5aG9njl-71" value="" style="whiteSpace=wrap;html=1;aspect=fixed;strokeColor=#6c8ebf;fillColor=#dae8fc;" vertex="1" parent="1">
          <mxGeometry x="178" y="662" width="13" height="13" as="geometry" />
        </mxCell>
        <mxCell id="_CxWsj8pHRZtv5aG9njl-72" value="" style="whiteSpace=wrap;html=1;aspect=fixed;strokeColor=#6c8ebf;fillColor=#dae8fc;" vertex="1" parent="1">
          <mxGeometry x="191" y="662" width="13" height="13" as="geometry" />
        </mxCell>
        <mxCell id="_CxWsj8pHRZtv5aG9njl-73" value="" style="whiteSpace=wrap;html=1;aspect=fixed;strokeColor=#6c8ebf;fillColor=#dae8fc;" vertex="1" parent="1">
          <mxGeometry x="152" y="675" width="13" height="13" as="geometry" />
        </mxCell>
        <mxCell id="_CxWsj8pHRZtv5aG9njl-74" value="" style="whiteSpace=wrap;html=1;aspect=fixed;strokeColor=#6c8ebf;fillColor=#dae8fc;" vertex="1" parent="1">
          <mxGeometry x="165" y="675" width="13" height="13" as="geometry" />
        </mxCell>
        <mxCell id="_CxWsj8pHRZtv5aG9njl-75" value="" style="whiteSpace=wrap;html=1;aspect=fixed;strokeColor=#6c8ebf;fillColor=#dae8fc;" vertex="1" parent="1">
          <mxGeometry x="178" y="675" width="13" height="13" as="geometry" />
        </mxCell>
        <mxCell id="_CxWsj8pHRZtv5aG9njl-76" value="" style="whiteSpace=wrap;html=1;aspect=fixed;strokeColor=#6c8ebf;fillColor=#dae8fc;" vertex="1" parent="1">
          <mxGeometry x="191" y="675" width="13" height="13" as="geometry" />
        </mxCell>
        <mxCell id="_CxWsj8pHRZtv5aG9njl-77" value="" style="whiteSpace=wrap;html=1;aspect=fixed;strokeColor=#6c8ebf;fillColor=#dae8fc;" vertex="1" parent="1">
          <mxGeometry x="152" y="688" width="13" height="13" as="geometry" />
        </mxCell>
        <mxCell id="_CxWsj8pHRZtv5aG9njl-78" value="" style="whiteSpace=wrap;html=1;aspect=fixed;strokeColor=#6c8ebf;fillColor=#dae8fc;" vertex="1" parent="1">
          <mxGeometry x="165" y="688" width="13" height="13" as="geometry" />
        </mxCell>
        <mxCell id="_CxWsj8pHRZtv5aG9njl-79" value="" style="whiteSpace=wrap;html=1;aspect=fixed;strokeColor=#6c8ebf;fillColor=#dae8fc;" vertex="1" parent="1">
          <mxGeometry x="178" y="688" width="13" height="13" as="geometry" />
        </mxCell>
        <mxCell id="_CxWsj8pHRZtv5aG9njl-80" value="" style="whiteSpace=wrap;html=1;aspect=fixed;strokeColor=#6c8ebf;fillColor=#dae8fc;" vertex="1" parent="1">
          <mxGeometry x="191" y="688" width="13" height="13" as="geometry" />
        </mxCell>
        <mxCell id="_CxWsj8pHRZtv5aG9njl-81" value="" style="whiteSpace=wrap;html=1;aspect=fixed;strokeColor=#6c8ebf;fillColor=#dae8fc;" vertex="1" parent="1">
          <mxGeometry x="204" y="649" width="13" height="13" as="geometry" />
        </mxCell>
        <mxCell id="_CxWsj8pHRZtv5aG9njl-82" value="" style="whiteSpace=wrap;html=1;aspect=fixed;strokeColor=#6c8ebf;fillColor=#dae8fc;" vertex="1" parent="1">
          <mxGeometry x="217" y="649" width="13" height="13" as="geometry" />
        </mxCell>
        <mxCell id="_CxWsj8pHRZtv5aG9njl-83" value="" style="whiteSpace=wrap;html=1;aspect=fixed;strokeColor=#6c8ebf;fillColor=#dae8fc;" vertex="1" parent="1">
          <mxGeometry x="230" y="649" width="13" height="13" as="geometry" />
        </mxCell>
        <mxCell id="_CxWsj8pHRZtv5aG9njl-84" value="" style="whiteSpace=wrap;html=1;aspect=fixed;strokeColor=#6c8ebf;fillColor=#dae8fc;" vertex="1" parent="1">
          <mxGeometry x="243" y="649" width="13" height="13" as="geometry" />
        </mxCell>
        <mxCell id="_CxWsj8pHRZtv5aG9njl-85" value="" style="whiteSpace=wrap;html=1;aspect=fixed;strokeColor=#6c8ebf;fillColor=#dae8fc;" vertex="1" parent="1">
          <mxGeometry x="204" y="662" width="13" height="13" as="geometry" />
        </mxCell>
        <mxCell id="_CxWsj8pHRZtv5aG9njl-86" value="" style="whiteSpace=wrap;html=1;aspect=fixed;strokeColor=#6c8ebf;fillColor=#dae8fc;" vertex="1" parent="1">
          <mxGeometry x="217" y="662" width="13" height="13" as="geometry" />
        </mxCell>
        <mxCell id="_CxWsj8pHRZtv5aG9njl-87" value="" style="whiteSpace=wrap;html=1;aspect=fixed;strokeColor=#6c8ebf;fillColor=#dae8fc;" vertex="1" parent="1">
          <mxGeometry x="230" y="662" width="13" height="13" as="geometry" />
        </mxCell>
        <mxCell id="_CxWsj8pHRZtv5aG9njl-88" value="" style="whiteSpace=wrap;html=1;aspect=fixed;strokeColor=#6c8ebf;fillColor=#dae8fc;" vertex="1" parent="1">
          <mxGeometry x="243" y="662" width="13" height="13" as="geometry" />
        </mxCell>
        <mxCell id="_CxWsj8pHRZtv5aG9njl-89" value="" style="whiteSpace=wrap;html=1;aspect=fixed;strokeColor=#6c8ebf;fillColor=#dae8fc;" vertex="1" parent="1">
          <mxGeometry x="204" y="675" width="13" height="13" as="geometry" />
        </mxCell>
        <mxCell id="_CxWsj8pHRZtv5aG9njl-90" value="" style="whiteSpace=wrap;html=1;aspect=fixed;strokeColor=#6c8ebf;fillColor=#dae8fc;" vertex="1" parent="1">
          <mxGeometry x="217" y="675" width="13" height="13" as="geometry" />
        </mxCell>
        <mxCell id="_CxWsj8pHRZtv5aG9njl-91" value="" style="whiteSpace=wrap;html=1;aspect=fixed;strokeColor=#6c8ebf;fillColor=#dae8fc;" vertex="1" parent="1">
          <mxGeometry x="230" y="675" width="13" height="13" as="geometry" />
        </mxCell>
        <mxCell id="_CxWsj8pHRZtv5aG9njl-92" value="" style="whiteSpace=wrap;html=1;aspect=fixed;strokeColor=#6c8ebf;fillColor=#dae8fc;" vertex="1" parent="1">
          <mxGeometry x="243" y="675" width="13" height="13" as="geometry" />
        </mxCell>
        <mxCell id="_CxWsj8pHRZtv5aG9njl-93" value="" style="whiteSpace=wrap;html=1;aspect=fixed;strokeColor=#6c8ebf;fillColor=#dae8fc;" vertex="1" parent="1">
          <mxGeometry x="204" y="688" width="13" height="13" as="geometry" />
        </mxCell>
        <mxCell id="_CxWsj8pHRZtv5aG9njl-94" value="" style="whiteSpace=wrap;html=1;aspect=fixed;strokeColor=#6c8ebf;fillColor=#dae8fc;" vertex="1" parent="1">
          <mxGeometry x="217" y="688" width="13" height="13" as="geometry" />
        </mxCell>
        <mxCell id="_CxWsj8pHRZtv5aG9njl-95" value="" style="whiteSpace=wrap;html=1;aspect=fixed;strokeColor=#6c8ebf;fillColor=#dae8fc;" vertex="1" parent="1">
          <mxGeometry x="230" y="688" width="13" height="13" as="geometry" />
        </mxCell>
        <mxCell id="_CxWsj8pHRZtv5aG9njl-96" value="" style="whiteSpace=wrap;html=1;aspect=fixed;strokeColor=#6c8ebf;fillColor=#dae8fc;" vertex="1" parent="1">
          <mxGeometry x="243" y="688" width="13" height="13" as="geometry" />
        </mxCell>
        <mxCell id="_CxWsj8pHRZtv5aG9njl-32" value="" style="whiteSpace=wrap;html=1;aspect=fixed;strokeColor=#6c8ebf;fillColor=#dae8fc;" vertex="1" parent="1">
          <mxGeometry x="152" y="589.5" width="13" height="13" as="geometry" />
        </mxCell>
        <mxCell id="_CxWsj8pHRZtv5aG9njl-33" value="" style="whiteSpace=wrap;html=1;aspect=fixed;strokeColor=#6c8ebf;fillColor=#dae8fc;" vertex="1" parent="1">
          <mxGeometry x="165" y="589.5" width="13" height="13" as="geometry" />
        </mxCell>
        <mxCell id="_CxWsj8pHRZtv5aG9njl-34" value="" style="whiteSpace=wrap;html=1;aspect=fixed;strokeColor=#6c8ebf;fillColor=#dae8fc;" vertex="1" parent="1">
          <mxGeometry x="178" y="589.5" width="13" height="13" as="geometry" />
        </mxCell>
        <mxCell id="_CxWsj8pHRZtv5aG9njl-35" value="" style="whiteSpace=wrap;html=1;aspect=fixed;strokeColor=#6c8ebf;fillColor=#dae8fc;" vertex="1" parent="1">
          <mxGeometry x="191" y="589.5" width="13" height="13" as="geometry" />
        </mxCell>
        <mxCell id="_CxWsj8pHRZtv5aG9njl-37" value="" style="whiteSpace=wrap;html=1;aspect=fixed;strokeColor=#6c8ebf;fillColor=#dae8fc;" vertex="1" parent="1">
          <mxGeometry x="152" y="602.5" width="13" height="13" as="geometry" />
        </mxCell>
        <mxCell id="_CxWsj8pHRZtv5aG9njl-38" value="" style="whiteSpace=wrap;html=1;aspect=fixed;strokeColor=#6c8ebf;fillColor=#dae8fc;" vertex="1" parent="1">
          <mxGeometry x="165" y="602.5" width="13" height="13" as="geometry" />
        </mxCell>
        <mxCell id="_CxWsj8pHRZtv5aG9njl-39" value="" style="whiteSpace=wrap;html=1;aspect=fixed;strokeColor=#6c8ebf;fillColor=#dae8fc;" vertex="1" parent="1">
          <mxGeometry x="178" y="602.5" width="13" height="13" as="geometry" />
        </mxCell>
        <mxCell id="_CxWsj8pHRZtv5aG9njl-40" value="" style="whiteSpace=wrap;html=1;aspect=fixed;strokeColor=#6c8ebf;fillColor=#dae8fc;" vertex="1" parent="1">
          <mxGeometry x="191" y="602.5" width="13" height="13" as="geometry" />
        </mxCell>
        <mxCell id="_CxWsj8pHRZtv5aG9njl-41" value="" style="whiteSpace=wrap;html=1;aspect=fixed;strokeColor=#6c8ebf;fillColor=#dae8fc;" vertex="1" parent="1">
          <mxGeometry x="152" y="615.5" width="13" height="13" as="geometry" />
        </mxCell>
        <mxCell id="_CxWsj8pHRZtv5aG9njl-42" value="" style="whiteSpace=wrap;html=1;aspect=fixed;strokeColor=#6c8ebf;fillColor=#dae8fc;" vertex="1" parent="1">
          <mxGeometry x="165" y="615.5" width="13" height="13" as="geometry" />
        </mxCell>
        <mxCell id="_CxWsj8pHRZtv5aG9njl-43" value="" style="whiteSpace=wrap;html=1;aspect=fixed;strokeColor=#6c8ebf;fillColor=#dae8fc;" vertex="1" parent="1">
          <mxGeometry x="178" y="615.5" width="13" height="13" as="geometry" />
        </mxCell>
        <mxCell id="_CxWsj8pHRZtv5aG9njl-44" value="" style="whiteSpace=wrap;html=1;aspect=fixed;strokeColor=#6c8ebf;fillColor=#dae8fc;" vertex="1" parent="1">
          <mxGeometry x="191" y="615.5" width="13" height="13" as="geometry" />
        </mxCell>
        <mxCell id="_CxWsj8pHRZtv5aG9njl-45" value="" style="whiteSpace=wrap;html=1;aspect=fixed;strokeColor=#6c8ebf;fillColor=#dae8fc;" vertex="1" parent="1">
          <mxGeometry x="152" y="628.5" width="13" height="13" as="geometry" />
        </mxCell>
        <mxCell id="_CxWsj8pHRZtv5aG9njl-46" value="" style="whiteSpace=wrap;html=1;aspect=fixed;strokeColor=#6c8ebf;fillColor=#dae8fc;" vertex="1" parent="1">
          <mxGeometry x="165" y="628.5" width="13" height="13" as="geometry" />
        </mxCell>
        <mxCell id="_CxWsj8pHRZtv5aG9njl-47" value="" style="whiteSpace=wrap;html=1;aspect=fixed;strokeColor=#6c8ebf;fillColor=#dae8fc;" vertex="1" parent="1">
          <mxGeometry x="178" y="628.5" width="13" height="13" as="geometry" />
        </mxCell>
        <mxCell id="_CxWsj8pHRZtv5aG9njl-48" value="" style="whiteSpace=wrap;html=1;aspect=fixed;strokeColor=#6c8ebf;fillColor=#dae8fc;" vertex="1" parent="1">
          <mxGeometry x="191" y="628.5" width="13" height="13" as="geometry" />
        </mxCell>
        <mxCell id="_CxWsj8pHRZtv5aG9njl-49" value="" style="whiteSpace=wrap;html=1;aspect=fixed;strokeColor=#6c8ebf;fillColor=#dae8fc;" vertex="1" parent="1">
          <mxGeometry x="204" y="589.5" width="13" height="13" as="geometry" />
        </mxCell>
        <mxCell id="_CxWsj8pHRZtv5aG9njl-50" value="" style="whiteSpace=wrap;html=1;aspect=fixed;strokeColor=#6c8ebf;fillColor=#dae8fc;" vertex="1" parent="1">
          <mxGeometry x="217" y="589.5" width="13" height="13" as="geometry" />
        </mxCell>
        <mxCell id="_CxWsj8pHRZtv5aG9njl-51" value="" style="whiteSpace=wrap;html=1;aspect=fixed;strokeColor=#6c8ebf;fillColor=#dae8fc;" vertex="1" parent="1">
          <mxGeometry x="230" y="589.5" width="13" height="13" as="geometry" />
        </mxCell>
        <mxCell id="_CxWsj8pHRZtv5aG9njl-52" value="" style="whiteSpace=wrap;html=1;aspect=fixed;strokeColor=#6c8ebf;fillColor=#dae8fc;" vertex="1" parent="1">
          <mxGeometry x="243" y="589.5" width="13" height="13" as="geometry" />
        </mxCell>
        <mxCell id="_CxWsj8pHRZtv5aG9njl-53" value="" style="whiteSpace=wrap;html=1;aspect=fixed;strokeColor=#6c8ebf;fillColor=#dae8fc;" vertex="1" parent="1">
          <mxGeometry x="204" y="602.5" width="13" height="13" as="geometry" />
        </mxCell>
        <mxCell id="_CxWsj8pHRZtv5aG9njl-54" value="" style="whiteSpace=wrap;html=1;aspect=fixed;strokeColor=#6c8ebf;fillColor=#dae8fc;" vertex="1" parent="1">
          <mxGeometry x="217" y="602.5" width="13" height="13" as="geometry" />
        </mxCell>
        <mxCell id="_CxWsj8pHRZtv5aG9njl-55" value="" style="whiteSpace=wrap;html=1;aspect=fixed;strokeColor=#6c8ebf;fillColor=#dae8fc;" vertex="1" parent="1">
          <mxGeometry x="230" y="602.5" width="13" height="13" as="geometry" />
        </mxCell>
        <mxCell id="_CxWsj8pHRZtv5aG9njl-56" value="" style="whiteSpace=wrap;html=1;aspect=fixed;strokeColor=#6c8ebf;fillColor=#dae8fc;" vertex="1" parent="1">
          <mxGeometry x="243" y="602.5" width="13" height="13" as="geometry" />
        </mxCell>
        <mxCell id="_CxWsj8pHRZtv5aG9njl-57" value="" style="whiteSpace=wrap;html=1;aspect=fixed;strokeColor=#6c8ebf;fillColor=#dae8fc;" vertex="1" parent="1">
          <mxGeometry x="204" y="615.5" width="13" height="13" as="geometry" />
        </mxCell>
        <mxCell id="_CxWsj8pHRZtv5aG9njl-58" value="" style="whiteSpace=wrap;html=1;aspect=fixed;strokeColor=#6c8ebf;fillColor=#dae8fc;" vertex="1" parent="1">
          <mxGeometry x="217" y="615.5" width="13" height="13" as="geometry" />
        </mxCell>
        <mxCell id="_CxWsj8pHRZtv5aG9njl-59" value="" style="whiteSpace=wrap;html=1;aspect=fixed;strokeColor=#6c8ebf;fillColor=#dae8fc;" vertex="1" parent="1">
          <mxGeometry x="230" y="615.5" width="13" height="13" as="geometry" />
        </mxCell>
        <mxCell id="_CxWsj8pHRZtv5aG9njl-60" value="" style="whiteSpace=wrap;html=1;aspect=fixed;strokeColor=#6c8ebf;fillColor=#dae8fc;" vertex="1" parent="1">
          <mxGeometry x="243" y="615.5" width="13" height="13" as="geometry" />
        </mxCell>
        <mxCell id="_CxWsj8pHRZtv5aG9njl-61" value="" style="whiteSpace=wrap;html=1;aspect=fixed;strokeColor=#6c8ebf;fillColor=#dae8fc;" vertex="1" parent="1">
          <mxGeometry x="204" y="628.5" width="13" height="13" as="geometry" />
        </mxCell>
        <mxCell id="_CxWsj8pHRZtv5aG9njl-62" value="" style="whiteSpace=wrap;html=1;aspect=fixed;strokeColor=#6c8ebf;fillColor=#dae8fc;" vertex="1" parent="1">
          <mxGeometry x="217" y="628.5" width="13" height="13" as="geometry" />
        </mxCell>
        <mxCell id="_CxWsj8pHRZtv5aG9njl-63" value="" style="whiteSpace=wrap;html=1;aspect=fixed;strokeColor=#6c8ebf;fillColor=#dae8fc;" vertex="1" parent="1">
          <mxGeometry x="230" y="628.5" width="13" height="13" as="geometry" />
        </mxCell>
        <mxCell id="_CxWsj8pHRZtv5aG9njl-64" value="" style="whiteSpace=wrap;html=1;aspect=fixed;strokeColor=#6c8ebf;fillColor=#dae8fc;" vertex="1" parent="1">
          <mxGeometry x="243" y="628.5" width="13" height="13" as="geometry" />
        </mxCell>
        <mxCell id="_CxWsj8pHRZtv5aG9njl-3" value="" style="whiteSpace=wrap;html=1;aspect=fixed;fillColor=#FFCCCC;" vertex="1" parent="1">
          <mxGeometry x="87" y="482" width="52" height="52" as="geometry" />
        </mxCell>
        <mxCell id="_CxWsj8pHRZtv5aG9njl-2" value="" style="whiteSpace=wrap;html=1;aspect=fixed;fillColor=#FFCCCC;" vertex="1" parent="1">
          <mxGeometry x="139" y="482" width="52" height="52" as="geometry" />
        </mxCell>
        <mxCell id="_CxWsj8pHRZtv5aG9njl-1" value="" style="whiteSpace=wrap;html=1;aspect=fixed;fillColor=#FFCCCC;" vertex="1" parent="1">
          <mxGeometry x="139" y="430" width="52" height="52" as="geometry" />
        </mxCell>
        <mxCell id="zrD310suB1USUXp1EIBQ-1" value="" style="whiteSpace=wrap;html=1;aspect=fixed;" parent="1" vertex="1">
          <mxGeometry x="70" y="110" width="20" height="20" as="geometry" />
        </mxCell>
        <mxCell id="zrD310suB1USUXp1EIBQ-2" value="" style="whiteSpace=wrap;html=1;aspect=fixed;" parent="1" vertex="1">
          <mxGeometry x="90" y="110" width="20" height="20" as="geometry" />
        </mxCell>
        <mxCell id="zrD310suB1USUXp1EIBQ-3" value="" style="whiteSpace=wrap;html=1;aspect=fixed;" parent="1" vertex="1">
          <mxGeometry x="110" y="110" width="20" height="20" as="geometry" />
        </mxCell>
        <mxCell id="zrD310suB1USUXp1EIBQ-4" value="" style="whiteSpace=wrap;html=1;aspect=fixed;" parent="1" vertex="1">
          <mxGeometry x="130" y="110" width="20" height="20" as="geometry" />
        </mxCell>
        <mxCell id="zrD310suB1USUXp1EIBQ-5" value="" style="whiteSpace=wrap;html=1;aspect=fixed;" parent="1" vertex="1">
          <mxGeometry x="70" y="130" width="20" height="20" as="geometry" />
        </mxCell>
        <mxCell id="zrD310suB1USUXp1EIBQ-6" value="" style="whiteSpace=wrap;html=1;aspect=fixed;" parent="1" vertex="1">
          <mxGeometry x="90" y="130" width="20" height="20" as="geometry" />
        </mxCell>
        <mxCell id="zrD310suB1USUXp1EIBQ-7" value="" style="whiteSpace=wrap;html=1;aspect=fixed;" parent="1" vertex="1">
          <mxGeometry x="110" y="130" width="20" height="20" as="geometry" />
        </mxCell>
        <mxCell id="zrD310suB1USUXp1EIBQ-8" value="" style="whiteSpace=wrap;html=1;aspect=fixed;" parent="1" vertex="1">
          <mxGeometry x="130" y="130" width="20" height="20" as="geometry" />
        </mxCell>
        <mxCell id="zrD310suB1USUXp1EIBQ-9" value="" style="whiteSpace=wrap;html=1;aspect=fixed;" parent="1" vertex="1">
          <mxGeometry x="70" y="150" width="20" height="20" as="geometry" />
        </mxCell>
        <mxCell id="zrD310suB1USUXp1EIBQ-10" value="" style="whiteSpace=wrap;html=1;aspect=fixed;" parent="1" vertex="1">
          <mxGeometry x="90" y="150" width="20" height="20" as="geometry" />
        </mxCell>
        <mxCell id="zrD310suB1USUXp1EIBQ-11" value="" style="whiteSpace=wrap;html=1;aspect=fixed;" parent="1" vertex="1">
          <mxGeometry x="110" y="150" width="20" height="20" as="geometry" />
        </mxCell>
        <mxCell id="zrD310suB1USUXp1EIBQ-12" value="" style="whiteSpace=wrap;html=1;aspect=fixed;" parent="1" vertex="1">
          <mxGeometry x="130" y="150" width="20" height="20" as="geometry" />
        </mxCell>
        <mxCell id="zrD310suB1USUXp1EIBQ-13" value="" style="whiteSpace=wrap;html=1;aspect=fixed;" parent="1" vertex="1">
          <mxGeometry x="70" y="170" width="20" height="20" as="geometry" />
        </mxCell>
        <mxCell id="zrD310suB1USUXp1EIBQ-14" value="" style="whiteSpace=wrap;html=1;aspect=fixed;" parent="1" vertex="1">
          <mxGeometry x="90" y="170" width="20" height="20" as="geometry" />
        </mxCell>
        <mxCell id="zrD310suB1USUXp1EIBQ-15" value="" style="whiteSpace=wrap;html=1;aspect=fixed;" parent="1" vertex="1">
          <mxGeometry x="110" y="170" width="20" height="20" as="geometry" />
        </mxCell>
        <mxCell id="zrD310suB1USUXp1EIBQ-16" value="" style="whiteSpace=wrap;html=1;aspect=fixed;" parent="1" vertex="1">
          <mxGeometry x="130" y="170" width="20" height="20" as="geometry" />
        </mxCell>
        <mxCell id="zrD310suB1USUXp1EIBQ-19" value="" style="ellipse;whiteSpace=wrap;html=1;aspect=fixed;fillColor=#FF0000;strokeColor=none;" parent="1" vertex="1">
          <mxGeometry x="74" y="119" width="2" height="2" as="geometry" />
        </mxCell>
        <mxCell id="zrD310suB1USUXp1EIBQ-21" value="" style="ellipse;whiteSpace=wrap;html=1;aspect=fixed;fillColor=#FF0000;strokeColor=none;" parent="1" vertex="1">
          <mxGeometry x="97" y="122" width="2" height="2" as="geometry" />
        </mxCell>
        <mxCell id="zrD310suB1USUXp1EIBQ-22" value="" style="ellipse;whiteSpace=wrap;html=1;aspect=fixed;fillColor=#FF0000;strokeColor=none;" parent="1" vertex="1">
          <mxGeometry x="117" y="113" width="2" height="2" as="geometry" />
        </mxCell>
        <mxCell id="zrD310suB1USUXp1EIBQ-24" value="" style="ellipse;whiteSpace=wrap;html=1;aspect=fixed;fillColor=#FF0000;strokeColor=none;" parent="1" vertex="1">
          <mxGeometry x="143" y="124" width="2" height="2" as="geometry" />
        </mxCell>
        <mxCell id="zrD310suB1USUXp1EIBQ-25" value="" style="ellipse;whiteSpace=wrap;html=1;aspect=fixed;fillColor=#FF0000;strokeColor=none;" parent="1" vertex="1">
          <mxGeometry x="137" y="158" width="2" height="2" as="geometry" />
        </mxCell>
        <mxCell id="zrD310suB1USUXp1EIBQ-26" value="" style="ellipse;whiteSpace=wrap;html=1;aspect=fixed;fillColor=#FF0000;strokeColor=none;" parent="1" vertex="1">
          <mxGeometry x="141" y="179" width="2" height="2" as="geometry" />
        </mxCell>
        <mxCell id="zrD310suB1USUXp1EIBQ-27" value="" style="ellipse;whiteSpace=wrap;html=1;aspect=fixed;fillColor=#FF0000;strokeColor=none;" parent="1" vertex="1">
          <mxGeometry x="140" y="139" width="2" height="2" as="geometry" />
        </mxCell>
        <mxCell id="zrD310suB1USUXp1EIBQ-28" value="" style="ellipse;whiteSpace=wrap;html=1;aspect=fixed;fillColor=#FF0000;strokeColor=none;" parent="1" vertex="1">
          <mxGeometry x="114" y="184" width="2" height="2" as="geometry" />
        </mxCell>
        <mxCell id="zrD310suB1USUXp1EIBQ-29" value="" style="ellipse;whiteSpace=wrap;html=1;aspect=fixed;fillColor=#FF0000;strokeColor=none;" parent="1" vertex="1">
          <mxGeometry x="119" y="158" width="2" height="2" as="geometry" />
        </mxCell>
        <mxCell id="zrD310suB1USUXp1EIBQ-30" value="" style="ellipse;whiteSpace=wrap;html=1;aspect=fixed;fillColor=#FF0000;strokeColor=none;" parent="1" vertex="1">
          <mxGeometry x="119" y="140" width="2" height="2" as="geometry" />
        </mxCell>
        <mxCell id="zrD310suB1USUXp1EIBQ-31" value="" style="ellipse;whiteSpace=wrap;html=1;aspect=fixed;fillColor=#FF0000;strokeColor=none;" parent="1" vertex="1">
          <mxGeometry x="98" y="181" width="2" height="2" as="geometry" />
        </mxCell>
        <mxCell id="zrD310suB1USUXp1EIBQ-32" value="" style="ellipse;whiteSpace=wrap;html=1;aspect=fixed;fillColor=#FF0000;strokeColor=none;" parent="1" vertex="1">
          <mxGeometry x="96" y="156" width="2" height="2" as="geometry" />
        </mxCell>
        <mxCell id="zrD310suB1USUXp1EIBQ-33" value="" style="ellipse;whiteSpace=wrap;html=1;aspect=fixed;fillColor=#FF0000;strokeColor=none;" parent="1" vertex="1">
          <mxGeometry x="98" y="139" width="2" height="2" as="geometry" />
        </mxCell>
        <mxCell id="zrD310suB1USUXp1EIBQ-34" value="" style="ellipse;whiteSpace=wrap;html=1;aspect=fixed;fillColor=#FF0000;strokeColor=none;" parent="1" vertex="1">
          <mxGeometry x="79" y="178" width="2" height="2" as="geometry" />
        </mxCell>
        <mxCell id="zrD310suB1USUXp1EIBQ-35" value="" style="ellipse;whiteSpace=wrap;html=1;aspect=fixed;fillColor=#FF0000;strokeColor=none;" parent="1" vertex="1">
          <mxGeometry x="79" y="156" width="2" height="2" as="geometry" />
        </mxCell>
        <mxCell id="zrD310suB1USUXp1EIBQ-36" value="" style="ellipse;whiteSpace=wrap;html=1;aspect=fixed;fillColor=#FF0000;strokeColor=none;" parent="1" vertex="1">
          <mxGeometry x="73" y="139" width="2" height="2" as="geometry" />
        </mxCell>
        <mxCell id="zrD310suB1USUXp1EIBQ-37" value="" style="endArrow=none;html=1;rounded=0;entryX=0;entryY=0;entryDx=0;entryDy=0;exitX=1;exitY=0.5;exitDx=0;exitDy=0;strokeColor=#3333FF;fontStyle=1" parent="1" source="zrD310suB1USUXp1EIBQ-19" target="zrD310suB1USUXp1EIBQ-21" edge="1">
          <mxGeometry width="50" height="50" relative="1" as="geometry">
            <mxPoint x="81" y="100" as="sourcePoint" />
            <mxPoint x="102" y="103" as="targetPoint" />
          </mxGeometry>
        </mxCell>
        <mxCell id="zrD310suB1USUXp1EIBQ-38" value="" style="endArrow=none;html=1;rounded=0;entryX=1;entryY=0;entryDx=0;entryDy=0;exitX=1;exitY=0;exitDx=0;exitDy=0;strokeColor=#3333FF;fontStyle=1" parent="1" source="zrD310suB1USUXp1EIBQ-36" target="zrD310suB1USUXp1EIBQ-19" edge="1">
          <mxGeometry width="50" height="50" relative="1" as="geometry">
            <mxPoint x="86" y="130" as="sourcePoint" />
            <mxPoint x="107" y="132" as="targetPoint" />
          </mxGeometry>
        </mxCell>
        <mxCell id="zrD310suB1USUXp1EIBQ-39" value="" style="endArrow=none;html=1;rounded=0;entryX=0;entryY=0.5;entryDx=0;entryDy=0;exitX=1;exitY=1;exitDx=0;exitDy=0;strokeColor=#3333FF;fontStyle=1" parent="1" source="zrD310suB1USUXp1EIBQ-36" target="zrD310suB1USUXp1EIBQ-33" edge="1">
          <mxGeometry width="50" height="50" relative="1" as="geometry">
            <mxPoint x="96" y="140" as="sourcePoint" />
            <mxPoint x="117" y="142" as="targetPoint" />
          </mxGeometry>
        </mxCell>
        <mxCell id="zrD310suB1USUXp1EIBQ-40" value="" style="endArrow=none;html=1;rounded=0;entryX=1;entryY=1;entryDx=0;entryDy=0;exitX=0.5;exitY=0;exitDx=0;exitDy=0;strokeColor=#3333FF;fontStyle=1" parent="1" source="zrD310suB1USUXp1EIBQ-33" target="zrD310suB1USUXp1EIBQ-21" edge="1">
          <mxGeometry width="50" height="50" relative="1" as="geometry">
            <mxPoint x="106" y="150" as="sourcePoint" />
            <mxPoint x="127" y="152" as="targetPoint" />
          </mxGeometry>
        </mxCell>
        <mxCell id="zrD310suB1USUXp1EIBQ-41" value="" style="endArrow=none;html=1;rounded=0;entryX=0;entryY=0;entryDx=0;entryDy=0;exitX=1;exitY=1;exitDx=0;exitDy=0;strokeColor=#3333FF;fontStyle=1" parent="1" source="zrD310suB1USUXp1EIBQ-19" target="zrD310suB1USUXp1EIBQ-33" edge="1">
          <mxGeometry width="50" height="50" relative="1" as="geometry">
            <mxPoint x="116" y="160" as="sourcePoint" />
            <mxPoint x="137" y="162" as="targetPoint" />
          </mxGeometry>
        </mxCell>
        <mxCell id="zrD310suB1USUXp1EIBQ-43" value="" style="endArrow=none;html=1;rounded=0;entryX=0;entryY=1;entryDx=0;entryDy=0;exitX=1;exitY=0.5;exitDx=0;exitDy=0;strokeColor=#3333FF;fontStyle=1" parent="1" source="zrD310suB1USUXp1EIBQ-21" target="zrD310suB1USUXp1EIBQ-22" edge="1">
          <mxGeometry width="50" height="50" relative="1" as="geometry">
            <mxPoint x="86" y="130" as="sourcePoint" />
            <mxPoint x="107" y="132" as="targetPoint" />
          </mxGeometry>
        </mxCell>
        <mxCell id="zrD310suB1USUXp1EIBQ-44" value="" style="endArrow=none;html=1;rounded=0;entryX=1;entryY=0.5;entryDx=0;entryDy=0;exitX=1;exitY=0;exitDx=0;exitDy=0;strokeColor=#3333FF;fontStyle=1" parent="1" source="zrD310suB1USUXp1EIBQ-33" target="zrD310suB1USUXp1EIBQ-30" edge="1">
          <mxGeometry width="50" height="50" relative="1" as="geometry">
            <mxPoint x="109" y="133" as="sourcePoint" />
            <mxPoint x="127" y="125" as="targetPoint" />
          </mxGeometry>
        </mxCell>
        <mxCell id="zrD310suB1USUXp1EIBQ-45" value="" style="endArrow=none;html=1;rounded=0;entryX=0.5;entryY=1;entryDx=0;entryDy=0;strokeColor=#3333FF;fontStyle=1" parent="1" target="zrD310suB1USUXp1EIBQ-22" edge="1">
          <mxGeometry width="50" height="50" relative="1" as="geometry">
            <mxPoint x="120" y="140" as="sourcePoint" />
            <mxPoint x="109" y="134" as="targetPoint" />
          </mxGeometry>
        </mxCell>
        <mxCell id="zrD310suB1USUXp1EIBQ-46" value="" style="endArrow=none;html=1;rounded=0;strokeColor=#3333FF;fontStyle=1" parent="1" edge="1">
          <mxGeometry width="50" height="50" relative="1" as="geometry">
            <mxPoint x="120" y="141" as="sourcePoint" />
            <mxPoint x="99" y="123" as="targetPoint" />
          </mxGeometry>
        </mxCell>
        <mxCell id="zrD310suB1USUXp1EIBQ-47" value="" style="endArrow=none;html=1;rounded=0;entryX=0.5;entryY=0;entryDx=0;entryDy=0;strokeColor=#3333FF;fontStyle=1;exitX=1;exitY=0.5;exitDx=0;exitDy=0;" parent="1" source="zrD310suB1USUXp1EIBQ-22" target="zrD310suB1USUXp1EIBQ-24" edge="1">
          <mxGeometry width="50" height="50" relative="1" as="geometry">
            <mxPoint x="130" y="150" as="sourcePoint" />
            <mxPoint x="128" y="125" as="targetPoint" />
          </mxGeometry>
        </mxCell>
        <mxCell id="zrD310suB1USUXp1EIBQ-48" value="" style="endArrow=none;html=1;rounded=0;entryX=0.5;entryY=0;entryDx=0;entryDy=0;strokeColor=#3333FF;fontStyle=1" parent="1" target="zrD310suB1USUXp1EIBQ-24" edge="1">
          <mxGeometry width="50" height="50" relative="1" as="geometry">
            <mxPoint x="121" y="140" as="sourcePoint" />
            <mxPoint x="138" y="135" as="targetPoint" />
          </mxGeometry>
        </mxCell>
        <mxCell id="zrD310suB1USUXp1EIBQ-49" value="" style="endArrow=none;html=1;rounded=0;strokeColor=#3333FF;fontStyle=1;exitX=0.5;exitY=0;exitDx=0;exitDy=0;" parent="1" source="zrD310suB1USUXp1EIBQ-27" edge="1">
          <mxGeometry width="50" height="50" relative="1" as="geometry">
            <mxPoint x="150" y="170" as="sourcePoint" />
            <mxPoint x="144" y="124" as="targetPoint" />
          </mxGeometry>
        </mxCell>
        <mxCell id="zrD310suB1USUXp1EIBQ-50" value="" style="endArrow=none;html=1;rounded=0;strokeColor=#3333FF;fontStyle=1;exitX=0;exitY=1;exitDx=0;exitDy=0;" parent="1" source="zrD310suB1USUXp1EIBQ-27" edge="1">
          <mxGeometry width="50" height="50" relative="1" as="geometry">
            <mxPoint x="160" y="180" as="sourcePoint" />
            <mxPoint x="120" y="141" as="targetPoint" />
          </mxGeometry>
        </mxCell>
        <mxCell id="zrD310suB1USUXp1EIBQ-59" value="" style="ellipse;whiteSpace=wrap;html=1;aspect=fixed;fillColor=#FF0000;strokeColor=none;" parent="1" vertex="1">
          <mxGeometry x="69" y="208" width="2" height="2" as="geometry" />
        </mxCell>
        <mxCell id="zrD310suB1USUXp1EIBQ-60" value="" style="ellipse;whiteSpace=wrap;html=1;aspect=fixed;fillColor=#FF0000;strokeColor=none;" parent="1" vertex="1">
          <mxGeometry x="92" y="211" width="2" height="2" as="geometry" />
        </mxCell>
        <mxCell id="zrD310suB1USUXp1EIBQ-61" value="" style="ellipse;whiteSpace=wrap;html=1;aspect=fixed;fillColor=#FF0000;strokeColor=none;" parent="1" vertex="1">
          <mxGeometry x="112" y="202" width="2" height="2" as="geometry" />
        </mxCell>
        <mxCell id="zrD310suB1USUXp1EIBQ-62" value="" style="ellipse;whiteSpace=wrap;html=1;aspect=fixed;fillColor=#FF0000;strokeColor=none;" parent="1" vertex="1">
          <mxGeometry x="138" y="213" width="2" height="2" as="geometry" />
        </mxCell>
        <mxCell id="zrD310suB1USUXp1EIBQ-63" value="" style="ellipse;whiteSpace=wrap;html=1;aspect=fixed;fillColor=#FF0000;strokeColor=none;" parent="1" vertex="1">
          <mxGeometry x="135" y="228" width="2" height="2" as="geometry" />
        </mxCell>
        <mxCell id="zrD310suB1USUXp1EIBQ-64" value="" style="ellipse;whiteSpace=wrap;html=1;aspect=fixed;fillColor=#FF0000;strokeColor=none;" parent="1" vertex="1">
          <mxGeometry x="114" y="229" width="2" height="2" as="geometry" />
        </mxCell>
        <mxCell id="zrD310suB1USUXp1EIBQ-65" value="" style="ellipse;whiteSpace=wrap;html=1;aspect=fixed;fillColor=#FF0000;strokeColor=none;" parent="1" vertex="1">
          <mxGeometry x="93" y="228" width="2" height="2" as="geometry" />
        </mxCell>
        <mxCell id="zrD310suB1USUXp1EIBQ-66" value="" style="ellipse;whiteSpace=wrap;html=1;aspect=fixed;fillColor=#FF0000;strokeColor=none;" parent="1" vertex="1">
          <mxGeometry x="68" y="228" width="2" height="2" as="geometry" />
        </mxCell>
        <mxCell id="zrD310suB1USUXp1EIBQ-67" value="" style="endArrow=none;html=1;rounded=0;entryX=0;entryY=0;entryDx=0;entryDy=0;exitX=1;exitY=0.5;exitDx=0;exitDy=0;strokeColor=#3333FF;fontStyle=1" parent="1" source="zrD310suB1USUXp1EIBQ-59" target="zrD310suB1USUXp1EIBQ-60" edge="1">
          <mxGeometry width="50" height="50" relative="1" as="geometry">
            <mxPoint x="76" y="189" as="sourcePoint" />
            <mxPoint x="97" y="192" as="targetPoint" />
          </mxGeometry>
        </mxCell>
        <mxCell id="zrD310suB1USUXp1EIBQ-68" value="" style="endArrow=none;html=1;rounded=0;entryX=1;entryY=0;entryDx=0;entryDy=0;exitX=1;exitY=0;exitDx=0;exitDy=0;strokeColor=#3333FF;fontStyle=1" parent="1" source="zrD310suB1USUXp1EIBQ-66" target="zrD310suB1USUXp1EIBQ-59" edge="1">
          <mxGeometry width="50" height="50" relative="1" as="geometry">
            <mxPoint x="81" y="219" as="sourcePoint" />
            <mxPoint x="102" y="221" as="targetPoint" />
          </mxGeometry>
        </mxCell>
        <mxCell id="zrD310suB1USUXp1EIBQ-69" value="" style="endArrow=none;html=1;rounded=0;entryX=0;entryY=0.5;entryDx=0;entryDy=0;exitX=1;exitY=1;exitDx=0;exitDy=0;strokeColor=#3333FF;fontStyle=1" parent="1" source="zrD310suB1USUXp1EIBQ-66" target="zrD310suB1USUXp1EIBQ-65" edge="1">
          <mxGeometry width="50" height="50" relative="1" as="geometry">
            <mxPoint x="91" y="229" as="sourcePoint" />
            <mxPoint x="112" y="231" as="targetPoint" />
          </mxGeometry>
        </mxCell>
        <mxCell id="zrD310suB1USUXp1EIBQ-70" value="" style="endArrow=none;html=1;rounded=0;entryX=1;entryY=1;entryDx=0;entryDy=0;exitX=0.5;exitY=0;exitDx=0;exitDy=0;strokeColor=#3333FF;fontStyle=1" parent="1" source="zrD310suB1USUXp1EIBQ-65" target="zrD310suB1USUXp1EIBQ-60" edge="1">
          <mxGeometry width="50" height="50" relative="1" as="geometry">
            <mxPoint x="101" y="239" as="sourcePoint" />
            <mxPoint x="122" y="241" as="targetPoint" />
          </mxGeometry>
        </mxCell>
        <mxCell id="zrD310suB1USUXp1EIBQ-71" value="" style="endArrow=none;html=1;rounded=0;entryX=0;entryY=0;entryDx=0;entryDy=0;exitX=1;exitY=1;exitDx=0;exitDy=0;strokeColor=#3333FF;fontStyle=1" parent="1" source="zrD310suB1USUXp1EIBQ-59" target="zrD310suB1USUXp1EIBQ-65" edge="1">
          <mxGeometry width="50" height="50" relative="1" as="geometry">
            <mxPoint x="111" y="249" as="sourcePoint" />
            <mxPoint x="132" y="251" as="targetPoint" />
          </mxGeometry>
        </mxCell>
        <mxCell id="zrD310suB1USUXp1EIBQ-72" value="" style="endArrow=none;html=1;rounded=0;entryX=0;entryY=1;entryDx=0;entryDy=0;exitX=1;exitY=0.5;exitDx=0;exitDy=0;strokeColor=#3333FF;fontStyle=1" parent="1" source="zrD310suB1USUXp1EIBQ-60" target="zrD310suB1USUXp1EIBQ-61" edge="1">
          <mxGeometry width="50" height="50" relative="1" as="geometry">
            <mxPoint x="81" y="219" as="sourcePoint" />
            <mxPoint x="102" y="221" as="targetPoint" />
          </mxGeometry>
        </mxCell>
        <mxCell id="zrD310suB1USUXp1EIBQ-73" value="" style="endArrow=none;html=1;rounded=0;entryX=1;entryY=0.5;entryDx=0;entryDy=0;exitX=1;exitY=0;exitDx=0;exitDy=0;strokeColor=#3333FF;fontStyle=1" parent="1" source="zrD310suB1USUXp1EIBQ-65" target="zrD310suB1USUXp1EIBQ-64" edge="1">
          <mxGeometry width="50" height="50" relative="1" as="geometry">
            <mxPoint x="104" y="222" as="sourcePoint" />
            <mxPoint x="122" y="214" as="targetPoint" />
          </mxGeometry>
        </mxCell>
        <mxCell id="zrD310suB1USUXp1EIBQ-74" value="" style="endArrow=none;html=1;rounded=0;entryX=0.5;entryY=1;entryDx=0;entryDy=0;strokeColor=#3333FF;fontStyle=1" parent="1" target="zrD310suB1USUXp1EIBQ-61" edge="1">
          <mxGeometry width="50" height="50" relative="1" as="geometry">
            <mxPoint x="115" y="229" as="sourcePoint" />
            <mxPoint x="104" y="223" as="targetPoint" />
          </mxGeometry>
        </mxCell>
        <mxCell id="zrD310suB1USUXp1EIBQ-75" value="" style="endArrow=none;html=1;rounded=0;strokeColor=#3333FF;fontStyle=1" parent="1" edge="1">
          <mxGeometry width="50" height="50" relative="1" as="geometry">
            <mxPoint x="115" y="230" as="sourcePoint" />
            <mxPoint x="94" y="212" as="targetPoint" />
          </mxGeometry>
        </mxCell>
        <mxCell id="zrD310suB1USUXp1EIBQ-76" value="" style="endArrow=none;html=1;rounded=0;entryX=0.5;entryY=0;entryDx=0;entryDy=0;strokeColor=#3333FF;fontStyle=1;exitX=1;exitY=0.5;exitDx=0;exitDy=0;" parent="1" source="zrD310suB1USUXp1EIBQ-61" target="zrD310suB1USUXp1EIBQ-62" edge="1">
          <mxGeometry width="50" height="50" relative="1" as="geometry">
            <mxPoint x="125" y="239" as="sourcePoint" />
            <mxPoint x="123" y="214" as="targetPoint" />
          </mxGeometry>
        </mxCell>
        <mxCell id="zrD310suB1USUXp1EIBQ-77" value="" style="endArrow=none;html=1;rounded=0;entryX=0.5;entryY=0;entryDx=0;entryDy=0;strokeColor=#3333FF;fontStyle=1" parent="1" target="zrD310suB1USUXp1EIBQ-62" edge="1">
          <mxGeometry width="50" height="50" relative="1" as="geometry">
            <mxPoint x="116" y="229" as="sourcePoint" />
            <mxPoint x="133" y="224" as="targetPoint" />
          </mxGeometry>
        </mxCell>
        <mxCell id="zrD310suB1USUXp1EIBQ-78" value="" style="endArrow=none;html=1;rounded=0;strokeColor=#3333FF;fontStyle=1;exitX=0.5;exitY=0;exitDx=0;exitDy=0;" parent="1" source="zrD310suB1USUXp1EIBQ-63" edge="1">
          <mxGeometry width="50" height="50" relative="1" as="geometry">
            <mxPoint x="145" y="259" as="sourcePoint" />
            <mxPoint x="139" y="213" as="targetPoint" />
          </mxGeometry>
        </mxCell>
        <mxCell id="zrD310suB1USUXp1EIBQ-79" value="" style="endArrow=none;html=1;rounded=0;strokeColor=#3333FF;fontStyle=1;exitX=0;exitY=1;exitDx=0;exitDy=0;" parent="1" source="zrD310suB1USUXp1EIBQ-63" edge="1">
          <mxGeometry width="50" height="50" relative="1" as="geometry">
            <mxPoint x="155" y="269" as="sourcePoint" />
            <mxPoint x="115" y="230" as="targetPoint" />
          </mxGeometry>
        </mxCell>
        <mxCell id="zrD310suB1USUXp1EIBQ-80" value="" style="endArrow=none;html=1;rounded=0;dashed=1;" parent="1" edge="1">
          <mxGeometry width="50" height="50" relative="1" as="geometry">
            <mxPoint x="95" y="273" as="sourcePoint" />
            <mxPoint x="145" y="223" as="targetPoint" />
          </mxGeometry>
        </mxCell>
        <mxCell id="zrD310suB1USUXp1EIBQ-81" value="" style="endArrow=none;html=1;rounded=0;dashed=1;" parent="1" edge="1">
          <mxGeometry width="50" height="50" relative="1" as="geometry">
            <mxPoint x="95" y="273" as="sourcePoint" />
            <mxPoint x="61" y="219" as="targetPoint" />
          </mxGeometry>
        </mxCell>
        <mxCell id="zrD310suB1USUXp1EIBQ-82" value="" style="endArrow=none;html=1;rounded=0;" parent="1" edge="1">
          <mxGeometry width="50" height="50" relative="1" as="geometry">
            <mxPoint x="104" y="274" as="sourcePoint" />
            <mxPoint x="154" y="224" as="targetPoint" />
          </mxGeometry>
        </mxCell>
        <mxCell id="zrD310suB1USUXp1EIBQ-83" value="" style="endArrow=none;html=1;rounded=0;" parent="1" edge="1">
          <mxGeometry width="50" height="50" relative="1" as="geometry">
            <mxPoint x="104" y="274" as="sourcePoint" />
            <mxPoint x="70" y="220" as="targetPoint" />
          </mxGeometry>
        </mxCell>
        <mxCell id="zrD310suB1USUXp1EIBQ-86" value="N-1 帧" style="text;html=1;align=center;verticalAlign=middle;resizable=0;points=[];autosize=1;strokeColor=none;fillColor=none;" parent="1" vertex="1">
          <mxGeometry x="37" y="255" width="53" height="26" as="geometry" />
        </mxCell>
        <mxCell id="zrD310suB1USUXp1EIBQ-87" value="N 帧" style="text;html=1;align=center;verticalAlign=middle;resizable=0;points=[];autosize=1;strokeColor=none;fillColor=none;" parent="1" vertex="1">
          <mxGeometry x="112" y="257" width="42" height="26" as="geometry" />
        </mxCell>
        <mxCell id="zrD310suB1USUXp1EIBQ-88" value="" style="whiteSpace=wrap;html=1;aspect=fixed;" parent="1" vertex="1">
          <mxGeometry x="189" y="120" width="20" height="20" as="geometry" />
        </mxCell>
        <mxCell id="zrD310suB1USUXp1EIBQ-89" value="" style="whiteSpace=wrap;html=1;aspect=fixed;" parent="1" vertex="1">
          <mxGeometry x="209" y="120" width="20" height="20" as="geometry" />
        </mxCell>
        <mxCell id="zrD310suB1USUXp1EIBQ-90" value="" style="whiteSpace=wrap;html=1;aspect=fixed;" parent="1" vertex="1">
          <mxGeometry x="229" y="120" width="20" height="20" as="geometry" />
        </mxCell>
        <mxCell id="zrD310suB1USUXp1EIBQ-91" value="" style="whiteSpace=wrap;html=1;aspect=fixed;" parent="1" vertex="1">
          <mxGeometry x="249" y="120" width="20" height="20" as="geometry" />
        </mxCell>
        <mxCell id="zrD310suB1USUXp1EIBQ-92" value="" style="whiteSpace=wrap;html=1;aspect=fixed;" parent="1" vertex="1">
          <mxGeometry x="189" y="140" width="20" height="20" as="geometry" />
        </mxCell>
        <mxCell id="zrD310suB1USUXp1EIBQ-93" value="" style="whiteSpace=wrap;html=1;aspect=fixed;" parent="1" vertex="1">
          <mxGeometry x="209" y="140" width="20" height="20" as="geometry" />
        </mxCell>
        <mxCell id="zrD310suB1USUXp1EIBQ-94" value="" style="whiteSpace=wrap;html=1;aspect=fixed;" parent="1" vertex="1">
          <mxGeometry x="229" y="140" width="20" height="20" as="geometry" />
        </mxCell>
        <mxCell id="zrD310suB1USUXp1EIBQ-95" value="" style="whiteSpace=wrap;html=1;aspect=fixed;" parent="1" vertex="1">
          <mxGeometry x="249" y="140" width="20" height="20" as="geometry" />
        </mxCell>
        <mxCell id="zrD310suB1USUXp1EIBQ-96" value="" style="whiteSpace=wrap;html=1;aspect=fixed;" parent="1" vertex="1">
          <mxGeometry x="189" y="160" width="20" height="20" as="geometry" />
        </mxCell>
        <mxCell id="zrD310suB1USUXp1EIBQ-97" value="" style="whiteSpace=wrap;html=1;aspect=fixed;" parent="1" vertex="1">
          <mxGeometry x="209" y="160" width="20" height="20" as="geometry" />
        </mxCell>
        <mxCell id="zrD310suB1USUXp1EIBQ-98" value="" style="whiteSpace=wrap;html=1;aspect=fixed;" parent="1" vertex="1">
          <mxGeometry x="229" y="160" width="20" height="20" as="geometry" />
        </mxCell>
        <mxCell id="zrD310suB1USUXp1EIBQ-99" value="" style="whiteSpace=wrap;html=1;aspect=fixed;" parent="1" vertex="1">
          <mxGeometry x="249" y="160" width="20" height="20" as="geometry" />
        </mxCell>
        <mxCell id="zrD310suB1USUXp1EIBQ-100" value="" style="whiteSpace=wrap;html=1;aspect=fixed;" parent="1" vertex="1">
          <mxGeometry x="189" y="180" width="20" height="20" as="geometry" />
        </mxCell>
        <mxCell id="zrD310suB1USUXp1EIBQ-101" value="" style="whiteSpace=wrap;html=1;aspect=fixed;" parent="1" vertex="1">
          <mxGeometry x="209" y="180" width="20" height="20" as="geometry" />
        </mxCell>
        <mxCell id="zrD310suB1USUXp1EIBQ-102" value="" style="whiteSpace=wrap;html=1;aspect=fixed;" parent="1" vertex="1">
          <mxGeometry x="229" y="180" width="20" height="20" as="geometry" />
        </mxCell>
        <mxCell id="zrD310suB1USUXp1EIBQ-103" value="" style="whiteSpace=wrap;html=1;aspect=fixed;" parent="1" vertex="1">
          <mxGeometry x="249" y="180" width="20" height="20" as="geometry" />
        </mxCell>
        <mxCell id="zrD310suB1USUXp1EIBQ-104" value="" style="ellipse;whiteSpace=wrap;html=1;aspect=fixed;fillColor=#FF0000;strokeColor=none;" parent="1" vertex="1">
          <mxGeometry x="188" y="119" width="2" height="2" as="geometry" />
        </mxCell>
        <mxCell id="zrD310suB1USUXp1EIBQ-105" value="" style="ellipse;whiteSpace=wrap;html=1;aspect=fixed;fillColor=#FF0000;strokeColor=none;" parent="1" vertex="1">
          <mxGeometry x="216" y="120" width="2" height="2" as="geometry" />
        </mxCell>
        <mxCell id="zrD310suB1USUXp1EIBQ-106" value="" style="ellipse;whiteSpace=wrap;html=1;aspect=fixed;fillColor=#FF0000;strokeColor=none;" parent="1" vertex="1">
          <mxGeometry x="236" y="119" width="2" height="2" as="geometry" />
        </mxCell>
        <mxCell id="zrD310suB1USUXp1EIBQ-107" value="" style="ellipse;whiteSpace=wrap;html=1;aspect=fixed;fillColor=#FF0000;strokeColor=none;" parent="1" vertex="1">
          <mxGeometry x="269" y="120" width="2" height="2" as="geometry" />
        </mxCell>
        <mxCell id="zrD310suB1USUXp1EIBQ-108" value="" style="ellipse;whiteSpace=wrap;html=1;aspect=fixed;fillColor=#FF0000;strokeColor=none;" parent="1" vertex="1">
          <mxGeometry x="268" y="168" width="2" height="2" as="geometry" />
        </mxCell>
        <mxCell id="zrD310suB1USUXp1EIBQ-109" value="" style="ellipse;whiteSpace=wrap;html=1;aspect=fixed;fillColor=#FF0000;strokeColor=none;" parent="1" vertex="1">
          <mxGeometry x="268" y="199" width="2" height="2" as="geometry" />
        </mxCell>
        <mxCell id="zrD310suB1USUXp1EIBQ-110" value="" style="ellipse;whiteSpace=wrap;html=1;aspect=fixed;fillColor=#FF0000;strokeColor=none;" parent="1" vertex="1">
          <mxGeometry x="269" y="149" width="2" height="2" as="geometry" />
        </mxCell>
        <mxCell id="zrD310suB1USUXp1EIBQ-111" value="" style="ellipse;whiteSpace=wrap;html=1;aspect=fixed;fillColor=#FF0000;strokeColor=none;" parent="1" vertex="1">
          <mxGeometry x="233" y="194" width="2" height="2" as="geometry" />
        </mxCell>
        <mxCell id="zrD310suB1USUXp1EIBQ-112" value="" style="ellipse;whiteSpace=wrap;html=1;aspect=fixed;fillColor=#FF0000;strokeColor=none;" parent="1" vertex="1">
          <mxGeometry x="238" y="168" width="2" height="2" as="geometry" />
        </mxCell>
        <mxCell id="zrD310suB1USUXp1EIBQ-113" value="" style="ellipse;whiteSpace=wrap;html=1;aspect=fixed;fillColor=#FF0000;strokeColor=none;" parent="1" vertex="1">
          <mxGeometry x="238" y="150" width="2" height="2" as="geometry" />
        </mxCell>
        <mxCell id="zrD310suB1USUXp1EIBQ-114" value="" style="ellipse;whiteSpace=wrap;html=1;aspect=fixed;fillColor=#FF0000;strokeColor=none;" parent="1" vertex="1">
          <mxGeometry x="217" y="191" width="2" height="2" as="geometry" />
        </mxCell>
        <mxCell id="zrD310suB1USUXp1EIBQ-115" value="" style="ellipse;whiteSpace=wrap;html=1;aspect=fixed;fillColor=#FF0000;strokeColor=none;" parent="1" vertex="1">
          <mxGeometry x="215" y="166" width="2" height="2" as="geometry" />
        </mxCell>
        <mxCell id="zrD310suB1USUXp1EIBQ-116" value="" style="ellipse;whiteSpace=wrap;html=1;aspect=fixed;fillColor=#FF0000;strokeColor=none;" parent="1" vertex="1">
          <mxGeometry x="217" y="149" width="2" height="2" as="geometry" />
        </mxCell>
        <mxCell id="zrD310suB1USUXp1EIBQ-117" value="" style="ellipse;whiteSpace=wrap;html=1;aspect=fixed;fillColor=#FF0000;strokeColor=none;" parent="1" vertex="1">
          <mxGeometry x="198" y="188" width="2" height="2" as="geometry" />
        </mxCell>
        <mxCell id="zrD310suB1USUXp1EIBQ-118" value="" style="ellipse;whiteSpace=wrap;html=1;aspect=fixed;fillColor=#FF0000;strokeColor=none;" parent="1" vertex="1">
          <mxGeometry x="198" y="166" width="2" height="2" as="geometry" />
        </mxCell>
        <mxCell id="zrD310suB1USUXp1EIBQ-119" value="" style="ellipse;whiteSpace=wrap;html=1;aspect=fixed;fillColor=#FF0000;strokeColor=none;" parent="1" vertex="1">
          <mxGeometry x="192" y="149" width="2" height="2" as="geometry" />
        </mxCell>
        <mxCell id="zrD310suB1USUXp1EIBQ-120" value="" style="endArrow=none;html=1;rounded=0;entryX=0;entryY=0;entryDx=0;entryDy=0;exitX=1;exitY=0.5;exitDx=0;exitDy=0;strokeColor=#3333FF;fontStyle=1" parent="1" source="zrD310suB1USUXp1EIBQ-104" target="zrD310suB1USUXp1EIBQ-105" edge="1">
          <mxGeometry width="50" height="50" relative="1" as="geometry">
            <mxPoint x="200" y="110" as="sourcePoint" />
            <mxPoint x="221" y="113" as="targetPoint" />
          </mxGeometry>
        </mxCell>
        <mxCell id="zrD310suB1USUXp1EIBQ-121" value="" style="endArrow=none;html=1;rounded=0;entryX=0;entryY=0;entryDx=0;entryDy=0;exitX=1;exitY=0;exitDx=0;exitDy=0;strokeColor=#3333FF;fontStyle=1" parent="1" target="zrD310suB1USUXp1EIBQ-88" edge="1">
          <mxGeometry width="50" height="50" relative="1" as="geometry">
            <mxPoint x="192.70710678119093" y="150.292893218809" as="sourcePoint" />
            <mxPoint x="193.70710678119093" y="130.2928932188091" as="targetPoint" />
          </mxGeometry>
        </mxCell>
        <mxCell id="zrD310suB1USUXp1EIBQ-122" value="" style="endArrow=none;html=1;rounded=0;entryX=0;entryY=0.5;entryDx=0;entryDy=0;exitX=1;exitY=1;exitDx=0;exitDy=0;strokeColor=#3333FF;fontStyle=1" parent="1" source="zrD310suB1USUXp1EIBQ-119" target="zrD310suB1USUXp1EIBQ-116" edge="1">
          <mxGeometry width="50" height="50" relative="1" as="geometry">
            <mxPoint x="215" y="150" as="sourcePoint" />
            <mxPoint x="236" y="152" as="targetPoint" />
          </mxGeometry>
        </mxCell>
        <mxCell id="zrD310suB1USUXp1EIBQ-123" value="" style="endArrow=none;html=1;rounded=0;entryX=1;entryY=1;entryDx=0;entryDy=0;exitX=0.5;exitY=0;exitDx=0;exitDy=0;strokeColor=#3333FF;fontStyle=1" parent="1" source="zrD310suB1USUXp1EIBQ-116" target="zrD310suB1USUXp1EIBQ-105" edge="1">
          <mxGeometry width="50" height="50" relative="1" as="geometry">
            <mxPoint x="225" y="160" as="sourcePoint" />
            <mxPoint x="246" y="162" as="targetPoint" />
          </mxGeometry>
        </mxCell>
        <mxCell id="zrD310suB1USUXp1EIBQ-124" value="" style="endArrow=none;html=1;rounded=0;entryX=0;entryY=0;entryDx=0;entryDy=0;exitX=1;exitY=1;exitDx=0;exitDy=0;strokeColor=#3333FF;fontStyle=1" parent="1" source="zrD310suB1USUXp1EIBQ-104" target="zrD310suB1USUXp1EIBQ-116" edge="1">
          <mxGeometry width="50" height="50" relative="1" as="geometry">
            <mxPoint x="235" y="170" as="sourcePoint" />
            <mxPoint x="256" y="172" as="targetPoint" />
          </mxGeometry>
        </mxCell>
        <mxCell id="zrD310suB1USUXp1EIBQ-125" value="" style="endArrow=none;html=1;rounded=0;entryX=0;entryY=1;entryDx=0;entryDy=0;exitX=1;exitY=0.5;exitDx=0;exitDy=0;strokeColor=#3333FF;fontStyle=1" parent="1" edge="1">
          <mxGeometry width="50" height="50" relative="1" as="geometry">
            <mxPoint x="218.00000000001637" y="119.99999999999997" as="sourcePoint" />
            <mxPoint x="236.2928932187947" y="119.70710678120534" as="targetPoint" />
          </mxGeometry>
        </mxCell>
        <mxCell id="zrD310suB1USUXp1EIBQ-126" value="" style="endArrow=none;html=1;rounded=0;entryX=1;entryY=0.5;entryDx=0;entryDy=0;exitX=1;exitY=0;exitDx=0;exitDy=0;strokeColor=#3333FF;fontStyle=1" parent="1" source="zrD310suB1USUXp1EIBQ-116" target="zrD310suB1USUXp1EIBQ-113" edge="1">
          <mxGeometry width="50" height="50" relative="1" as="geometry">
            <mxPoint x="228" y="143" as="sourcePoint" />
            <mxPoint x="246" y="135" as="targetPoint" />
          </mxGeometry>
        </mxCell>
        <mxCell id="zrD310suB1USUXp1EIBQ-127" value="" style="endArrow=none;html=1;rounded=0;entryX=0.5;entryY=1;entryDx=0;entryDy=0;strokeColor=#3333FF;fontStyle=1" parent="1" target="zrD310suB1USUXp1EIBQ-106" edge="1">
          <mxGeometry width="50" height="50" relative="1" as="geometry">
            <mxPoint x="239" y="150" as="sourcePoint" />
            <mxPoint x="228" y="144" as="targetPoint" />
          </mxGeometry>
        </mxCell>
        <mxCell id="zrD310suB1USUXp1EIBQ-128" value="" style="endArrow=none;html=1;rounded=0;strokeColor=#3333FF;fontStyle=1;entryX=0.448;entryY=0.055;entryDx=0;entryDy=0;entryPerimeter=0;" parent="1" target="zrD310suB1USUXp1EIBQ-89" edge="1">
          <mxGeometry width="50" height="50" relative="1" as="geometry">
            <mxPoint x="239" y="151" as="sourcePoint" />
            <mxPoint x="218" y="133" as="targetPoint" />
          </mxGeometry>
        </mxCell>
        <mxCell id="zrD310suB1USUXp1EIBQ-129" value="" style="endArrow=none;html=1;rounded=0;entryX=0.5;entryY=0;entryDx=0;entryDy=0;strokeColor=#3333FF;fontStyle=1;exitX=1;exitY=0.5;exitDx=0;exitDy=0;" parent="1" source="zrD310suB1USUXp1EIBQ-106" target="zrD310suB1USUXp1EIBQ-107" edge="1">
          <mxGeometry width="50" height="50" relative="1" as="geometry">
            <mxPoint x="249" y="160" as="sourcePoint" />
            <mxPoint x="247" y="135" as="targetPoint" />
          </mxGeometry>
        </mxCell>
        <mxCell id="zrD310suB1USUXp1EIBQ-130" value="" style="endArrow=none;html=1;rounded=0;entryX=0.5;entryY=0;entryDx=0;entryDy=0;strokeColor=#3333FF;fontStyle=1" parent="1" target="zrD310suB1USUXp1EIBQ-107" edge="1">
          <mxGeometry width="50" height="50" relative="1" as="geometry">
            <mxPoint x="240" y="150" as="sourcePoint" />
            <mxPoint x="257" y="145" as="targetPoint" />
          </mxGeometry>
        </mxCell>
        <mxCell id="zrD310suB1USUXp1EIBQ-131" value="" style="endArrow=none;html=1;rounded=0;strokeColor=#3333FF;fontStyle=1;exitX=1;exitY=0.5;exitDx=0;exitDy=0;entryX=0.5;entryY=1;entryDx=0;entryDy=0;" parent="1" target="zrD310suB1USUXp1EIBQ-107" edge="1">
          <mxGeometry width="50" height="50" relative="1" as="geometry">
            <mxPoint x="270" y="150" as="sourcePoint" />
            <mxPoint x="269" y="133" as="targetPoint" />
          </mxGeometry>
        </mxCell>
        <mxCell id="zrD310suB1USUXp1EIBQ-132" value="" style="endArrow=none;html=1;rounded=0;strokeColor=#3333FF;fontStyle=1;exitX=0;exitY=1;exitDx=0;exitDy=0;" parent="1" source="zrD310suB1USUXp1EIBQ-110" edge="1">
          <mxGeometry width="50" height="50" relative="1" as="geometry">
            <mxPoint x="279" y="190" as="sourcePoint" />
            <mxPoint x="239" y="151" as="targetPoint" />
          </mxGeometry>
        </mxCell>
        <mxCell id="zrD310suB1USUXp1EIBQ-133" value="" style="rounded=0;whiteSpace=wrap;html=1;" parent="1" vertex="1">
          <mxGeometry x="190" y="223" width="66" height="57" as="geometry" />
        </mxCell>
        <mxCell id="zrD310suB1USUXp1EIBQ-134" value="" style="whiteSpace=wrap;html=1;aspect=fixed;" parent="1" vertex="1">
          <mxGeometry x="63" y="323" width="20" height="20" as="geometry" />
        </mxCell>
        <mxCell id="zrD310suB1USUXp1EIBQ-135" value="" style="whiteSpace=wrap;html=1;aspect=fixed;" parent="1" vertex="1">
          <mxGeometry x="83" y="323" width="20" height="20" as="geometry" />
        </mxCell>
        <mxCell id="zrD310suB1USUXp1EIBQ-136" value="" style="whiteSpace=wrap;html=1;aspect=fixed;" parent="1" vertex="1">
          <mxGeometry x="103" y="323" width="20" height="20" as="geometry" />
        </mxCell>
        <mxCell id="zrD310suB1USUXp1EIBQ-137" value="" style="whiteSpace=wrap;html=1;aspect=fixed;" parent="1" vertex="1">
          <mxGeometry x="123" y="323" width="20" height="20" as="geometry" />
        </mxCell>
        <mxCell id="zrD310suB1USUXp1EIBQ-138" value="" style="whiteSpace=wrap;html=1;aspect=fixed;" parent="1" vertex="1">
          <mxGeometry x="63" y="343" width="20" height="20" as="geometry" />
        </mxCell>
        <mxCell id="zrD310suB1USUXp1EIBQ-139" value="" style="whiteSpace=wrap;html=1;aspect=fixed;" parent="1" vertex="1">
          <mxGeometry x="83" y="343" width="20" height="20" as="geometry" />
        </mxCell>
        <mxCell id="zrD310suB1USUXp1EIBQ-140" value="" style="whiteSpace=wrap;html=1;aspect=fixed;" parent="1" vertex="1">
          <mxGeometry x="103" y="343" width="20" height="20" as="geometry" />
        </mxCell>
        <mxCell id="zrD310suB1USUXp1EIBQ-141" value="" style="whiteSpace=wrap;html=1;aspect=fixed;" parent="1" vertex="1">
          <mxGeometry x="123" y="343" width="20" height="20" as="geometry" />
        </mxCell>
        <mxCell id="zrD310suB1USUXp1EIBQ-150" value="" style="ellipse;whiteSpace=wrap;html=1;aspect=fixed;fillColor=#FF0000;strokeColor=none;" parent="1" vertex="1">
          <mxGeometry x="67" y="332" width="2" height="2" as="geometry" />
        </mxCell>
        <mxCell id="zrD310suB1USUXp1EIBQ-151" value="" style="ellipse;whiteSpace=wrap;html=1;aspect=fixed;fillColor=#FF0000;strokeColor=none;" parent="1" vertex="1">
          <mxGeometry x="90" y="335" width="2" height="2" as="geometry" />
        </mxCell>
        <mxCell id="zrD310suB1USUXp1EIBQ-152" value="" style="ellipse;whiteSpace=wrap;html=1;aspect=fixed;fillColor=#FF0000;strokeColor=none;" parent="1" vertex="1">
          <mxGeometry x="110" y="326" width="2" height="2" as="geometry" />
        </mxCell>
        <mxCell id="zrD310suB1USUXp1EIBQ-153" value="" style="ellipse;whiteSpace=wrap;html=1;aspect=fixed;fillColor=#FF0000;strokeColor=none;" parent="1" vertex="1">
          <mxGeometry x="136" y="335" width="2" height="2" as="geometry" />
        </mxCell>
        <mxCell id="zrD310suB1USUXp1EIBQ-156" value="" style="ellipse;whiteSpace=wrap;html=1;aspect=fixed;fillColor=#FF0000;strokeColor=none;" parent="1" vertex="1">
          <mxGeometry x="133" y="352" width="2" height="2" as="geometry" />
        </mxCell>
        <mxCell id="zrD310suB1USUXp1EIBQ-159" value="" style="ellipse;whiteSpace=wrap;html=1;aspect=fixed;fillColor=#FF0000;strokeColor=none;" parent="1" vertex="1">
          <mxGeometry x="112" y="353" width="2" height="2" as="geometry" />
        </mxCell>
        <mxCell id="zrD310suB1USUXp1EIBQ-162" value="" style="ellipse;whiteSpace=wrap;html=1;aspect=fixed;fillColor=#FF0000;strokeColor=none;" parent="1" vertex="1">
          <mxGeometry x="91" y="352" width="2" height="2" as="geometry" />
        </mxCell>
        <mxCell id="zrD310suB1USUXp1EIBQ-165" value="" style="ellipse;whiteSpace=wrap;html=1;aspect=fixed;fillColor=#FF0000;strokeColor=none;" parent="1" vertex="1">
          <mxGeometry x="66" y="352" width="2" height="2" as="geometry" />
        </mxCell>
        <mxCell id="zrD310suB1USUXp1EIBQ-166" value="" style="endArrow=none;html=1;rounded=0;entryX=0;entryY=0;entryDx=0;entryDy=0;exitX=1;exitY=0.5;exitDx=0;exitDy=0;strokeColor=#3333FF;fontStyle=1" parent="1" source="zrD310suB1USUXp1EIBQ-150" target="zrD310suB1USUXp1EIBQ-151" edge="1">
          <mxGeometry width="50" height="50" relative="1" as="geometry">
            <mxPoint x="74" y="313" as="sourcePoint" />
            <mxPoint x="95" y="316" as="targetPoint" />
          </mxGeometry>
        </mxCell>
        <mxCell id="zrD310suB1USUXp1EIBQ-167" value="" style="endArrow=none;html=1;rounded=0;entryX=1;entryY=0;entryDx=0;entryDy=0;exitX=1;exitY=0;exitDx=0;exitDy=0;strokeColor=#3333FF;fontStyle=1" parent="1" source="zrD310suB1USUXp1EIBQ-165" target="zrD310suB1USUXp1EIBQ-150" edge="1">
          <mxGeometry width="50" height="50" relative="1" as="geometry">
            <mxPoint x="79" y="343" as="sourcePoint" />
            <mxPoint x="100" y="345" as="targetPoint" />
          </mxGeometry>
        </mxCell>
        <mxCell id="zrD310suB1USUXp1EIBQ-168" value="" style="endArrow=none;html=1;rounded=0;entryX=0;entryY=0.5;entryDx=0;entryDy=0;exitX=1;exitY=1;exitDx=0;exitDy=0;strokeColor=#3333FF;fontStyle=1" parent="1" source="zrD310suB1USUXp1EIBQ-165" target="zrD310suB1USUXp1EIBQ-162" edge="1">
          <mxGeometry width="50" height="50" relative="1" as="geometry">
            <mxPoint x="89" y="353" as="sourcePoint" />
            <mxPoint x="110" y="355" as="targetPoint" />
          </mxGeometry>
        </mxCell>
        <mxCell id="zrD310suB1USUXp1EIBQ-169" value="" style="endArrow=none;html=1;rounded=0;entryX=1;entryY=1;entryDx=0;entryDy=0;exitX=0.5;exitY=0;exitDx=0;exitDy=0;strokeColor=#3333FF;fontStyle=1" parent="1" source="zrD310suB1USUXp1EIBQ-162" target="zrD310suB1USUXp1EIBQ-151" edge="1">
          <mxGeometry width="50" height="50" relative="1" as="geometry">
            <mxPoint x="99" y="363" as="sourcePoint" />
            <mxPoint x="120" y="365" as="targetPoint" />
          </mxGeometry>
        </mxCell>
        <mxCell id="zrD310suB1USUXp1EIBQ-170" value="" style="endArrow=none;html=1;rounded=0;entryX=0;entryY=0;entryDx=0;entryDy=0;exitX=1;exitY=1;exitDx=0;exitDy=0;strokeColor=#3333FF;fontStyle=1" parent="1" source="zrD310suB1USUXp1EIBQ-150" target="zrD310suB1USUXp1EIBQ-162" edge="1">
          <mxGeometry width="50" height="50" relative="1" as="geometry">
            <mxPoint x="109" y="373" as="sourcePoint" />
            <mxPoint x="130" y="375" as="targetPoint" />
          </mxGeometry>
        </mxCell>
        <mxCell id="zrD310suB1USUXp1EIBQ-171" value="" style="endArrow=none;html=1;rounded=0;entryX=0;entryY=1;entryDx=0;entryDy=0;exitX=1;exitY=0.5;exitDx=0;exitDy=0;strokeColor=#3333FF;fontStyle=1" parent="1" source="zrD310suB1USUXp1EIBQ-151" target="zrD310suB1USUXp1EIBQ-152" edge="1">
          <mxGeometry width="50" height="50" relative="1" as="geometry">
            <mxPoint x="79" y="343" as="sourcePoint" />
            <mxPoint x="100" y="345" as="targetPoint" />
          </mxGeometry>
        </mxCell>
        <mxCell id="zrD310suB1USUXp1EIBQ-172" value="" style="endArrow=none;html=1;rounded=0;entryX=1;entryY=0.5;entryDx=0;entryDy=0;exitX=1;exitY=0;exitDx=0;exitDy=0;strokeColor=#3333FF;fontStyle=1" parent="1" source="zrD310suB1USUXp1EIBQ-162" target="zrD310suB1USUXp1EIBQ-159" edge="1">
          <mxGeometry width="50" height="50" relative="1" as="geometry">
            <mxPoint x="102" y="346" as="sourcePoint" />
            <mxPoint x="120" y="338" as="targetPoint" />
          </mxGeometry>
        </mxCell>
        <mxCell id="zrD310suB1USUXp1EIBQ-173" value="" style="endArrow=none;html=1;rounded=0;entryX=0.5;entryY=1;entryDx=0;entryDy=0;strokeColor=#3333FF;fontStyle=1" parent="1" target="zrD310suB1USUXp1EIBQ-152" edge="1">
          <mxGeometry width="50" height="50" relative="1" as="geometry">
            <mxPoint x="113" y="353" as="sourcePoint" />
            <mxPoint x="102" y="347" as="targetPoint" />
          </mxGeometry>
        </mxCell>
        <mxCell id="zrD310suB1USUXp1EIBQ-174" value="" style="endArrow=none;html=1;rounded=0;strokeColor=#3333FF;fontStyle=1" parent="1" edge="1">
          <mxGeometry width="50" height="50" relative="1" as="geometry">
            <mxPoint x="113" y="354" as="sourcePoint" />
            <mxPoint x="92" y="336" as="targetPoint" />
          </mxGeometry>
        </mxCell>
        <mxCell id="zrD310suB1USUXp1EIBQ-175" value="" style="endArrow=none;html=1;rounded=0;entryX=0.5;entryY=0;entryDx=0;entryDy=0;strokeColor=#3333FF;fontStyle=1;exitX=1;exitY=0.5;exitDx=0;exitDy=0;" parent="1" source="zrD310suB1USUXp1EIBQ-152" target="zrD310suB1USUXp1EIBQ-153" edge="1">
          <mxGeometry width="50" height="50" relative="1" as="geometry">
            <mxPoint x="123" y="363" as="sourcePoint" />
            <mxPoint x="121" y="338" as="targetPoint" />
          </mxGeometry>
        </mxCell>
        <mxCell id="zrD310suB1USUXp1EIBQ-176" value="" style="endArrow=none;html=1;rounded=0;entryX=0.5;entryY=0;entryDx=0;entryDy=0;strokeColor=#3333FF;fontStyle=1" parent="1" target="zrD310suB1USUXp1EIBQ-153" edge="1">
          <mxGeometry width="50" height="50" relative="1" as="geometry">
            <mxPoint x="114" y="353" as="sourcePoint" />
            <mxPoint x="131" y="348" as="targetPoint" />
          </mxGeometry>
        </mxCell>
        <mxCell id="zrD310suB1USUXp1EIBQ-177" value="" style="endArrow=none;html=1;rounded=0;strokeColor=#3333FF;fontStyle=1;exitX=0.5;exitY=0;exitDx=0;exitDy=0;" parent="1" source="zrD310suB1USUXp1EIBQ-156" edge="1">
          <mxGeometry width="50" height="50" relative="1" as="geometry">
            <mxPoint x="143" y="383" as="sourcePoint" />
            <mxPoint x="137" y="337" as="targetPoint" />
          </mxGeometry>
        </mxCell>
        <mxCell id="zrD310suB1USUXp1EIBQ-178" value="" style="endArrow=none;html=1;rounded=0;strokeColor=#3333FF;fontStyle=1;exitX=0;exitY=1;exitDx=0;exitDy=0;" parent="1" source="zrD310suB1USUXp1EIBQ-156" edge="1">
          <mxGeometry width="50" height="50" relative="1" as="geometry">
            <mxPoint x="153" y="393" as="sourcePoint" />
            <mxPoint x="113" y="354" as="targetPoint" />
          </mxGeometry>
        </mxCell>
        <mxCell id="zrD310suB1USUXp1EIBQ-180" value="" style="whiteSpace=wrap;html=1;aspect=fixed;fillColor=#f8cecc;strokeColor=#b85450;" parent="1" vertex="1">
          <mxGeometry x="143" y="323" width="20" height="20" as="geometry" />
        </mxCell>
        <mxCell id="zrD310suB1USUXp1EIBQ-181" value="" style="whiteSpace=wrap;html=1;aspect=fixed;fillColor=#f8cecc;strokeColor=#b85450;" parent="1" vertex="1">
          <mxGeometry x="143" y="343" width="20" height="20" as="geometry" />
        </mxCell>
        <mxCell id="zrD310suB1USUXp1EIBQ-182" value="" style="ellipse;whiteSpace=wrap;html=1;aspect=fixed;fillColor=#FF0000;strokeColor=none;" parent="1" vertex="1">
          <mxGeometry x="152" y="333" width="2" height="2" as="geometry" />
        </mxCell>
        <mxCell id="zrD310suB1USUXp1EIBQ-183" value="" style="ellipse;whiteSpace=wrap;html=1;aspect=fixed;fillColor=#FF0000;strokeColor=none;" parent="1" vertex="1">
          <mxGeometry x="152" y="352" width="2" height="2" as="geometry" />
        </mxCell>
        <mxCell id="zrD310suB1USUXp1EIBQ-184" value="" style="endArrow=none;html=1;rounded=0;entryX=0;entryY=0.5;entryDx=0;entryDy=0;strokeColor=#99FF33;fontStyle=1;exitX=1;exitY=0.5;exitDx=0;exitDy=0;" parent="1" source="zrD310suB1USUXp1EIBQ-153" target="zrD310suB1USUXp1EIBQ-182" edge="1">
          <mxGeometry width="50" height="50" relative="1" as="geometry">
            <mxPoint x="122" y="337" as="sourcePoint" />
            <mxPoint x="147" y="347" as="targetPoint" />
          </mxGeometry>
        </mxCell>
        <mxCell id="zrD310suB1USUXp1EIBQ-186" value="" style="endArrow=none;html=1;rounded=0;entryX=1;entryY=0;entryDx=0;entryDy=0;strokeColor=#99FF33;fontStyle=1;exitX=1;exitY=1;exitDx=0;exitDy=0;" parent="1" source="zrD310suB1USUXp1EIBQ-182" target="zrD310suB1USUXp1EIBQ-183" edge="1">
          <mxGeometry width="50" height="50" relative="1" as="geometry">
            <mxPoint x="148" y="346" as="sourcePoint" />
            <mxPoint x="162" y="344" as="targetPoint" />
          </mxGeometry>
        </mxCell>
        <mxCell id="zrD310suB1USUXp1EIBQ-187" value="" style="endArrow=none;html=1;rounded=0;entryX=0;entryY=0.5;entryDx=0;entryDy=0;strokeColor=#99FF33;fontStyle=1;exitX=1;exitY=1;exitDx=0;exitDy=0;" parent="1" source="zrD310suB1USUXp1EIBQ-156" target="zrD310suB1USUXp1EIBQ-183" edge="1">
          <mxGeometry width="50" height="50" relative="1" as="geometry">
            <mxPoint x="158" y="356" as="sourcePoint" />
            <mxPoint x="172" y="354" as="targetPoint" />
          </mxGeometry>
        </mxCell>
        <mxCell id="zrD310suB1USUXp1EIBQ-198" value="" style="whiteSpace=wrap;html=1;aspect=fixed;strokeColor=default;fillColor=#CCFFCC;" parent="1" vertex="1">
          <mxGeometry x="87" y="430" width="13" height="13" as="geometry" />
        </mxCell>
        <mxCell id="zrD310suB1USUXp1EIBQ-200" value="" style="whiteSpace=wrap;html=1;aspect=fixed;fillColor=#FFCCCC;" parent="1" vertex="1">
          <mxGeometry x="113" y="430" width="13" height="13" as="geometry" />
        </mxCell>
        <mxCell id="zrD310suB1USUXp1EIBQ-201" value="" style="whiteSpace=wrap;html=1;aspect=fixed;fillColor=#FFCCCC;" parent="1" vertex="1">
          <mxGeometry x="126" y="430" width="13" height="13" as="geometry" />
        </mxCell>
        <mxCell id="zrD310suB1USUXp1EIBQ-203" value="" style="whiteSpace=wrap;html=1;aspect=fixed;strokeColor=default;fillColor=#CCFFCC;" parent="1" vertex="1">
          <mxGeometry x="87" y="443" width="13" height="13" as="geometry" />
        </mxCell>
        <mxCell id="zrD310suB1USUXp1EIBQ-204" value="" style="whiteSpace=wrap;html=1;aspect=fixed;strokeColor=default;fillColor=#CCFFCC;" parent="1" vertex="1">
          <mxGeometry x="100" y="443" width="13" height="13" as="geometry" />
        </mxCell>
        <mxCell id="zrD310suB1USUXp1EIBQ-205" value="" style="whiteSpace=wrap;html=1;aspect=fixed;fillColor=#FFCCCC;" parent="1" vertex="1">
          <mxGeometry x="113" y="443" width="13" height="13" as="geometry" />
        </mxCell>
        <mxCell id="zrD310suB1USUXp1EIBQ-206" value="" style="whiteSpace=wrap;html=1;aspect=fixed;fillColor=#FFCCCC;" parent="1" vertex="1">
          <mxGeometry x="126" y="443" width="13" height="13" as="geometry" />
        </mxCell>
        <mxCell id="zrD310suB1USUXp1EIBQ-208" value="" style="whiteSpace=wrap;html=1;aspect=fixed;strokeColor=default;fillColor=#CCFFCC;" parent="1" vertex="1">
          <mxGeometry x="87" y="456" width="13" height="13" as="geometry" />
        </mxCell>
        <mxCell id="zrD310suB1USUXp1EIBQ-209" value="" style="whiteSpace=wrap;html=1;aspect=fixed;strokeColor=default;fillColor=#CCFFCC;" parent="1" vertex="1">
          <mxGeometry x="100" y="456" width="13" height="13" as="geometry" />
        </mxCell>
        <mxCell id="zrD310suB1USUXp1EIBQ-210" value="" style="whiteSpace=wrap;html=1;aspect=fixed;fillColor=#FFCCCC;" parent="1" vertex="1">
          <mxGeometry x="113" y="456" width="13" height="13" as="geometry" />
        </mxCell>
        <mxCell id="zrD310suB1USUXp1EIBQ-211" value="" style="whiteSpace=wrap;html=1;aspect=fixed;fillColor=#FFCCCC;" parent="1" vertex="1">
          <mxGeometry x="126" y="456" width="13" height="13" as="geometry" />
        </mxCell>
        <mxCell id="zrD310suB1USUXp1EIBQ-213" value="" style="whiteSpace=wrap;html=1;aspect=fixed;strokeColor=default;fillColor=#CCFFCC;" parent="1" vertex="1">
          <mxGeometry x="87" y="469" width="13" height="13" as="geometry" />
        </mxCell>
        <mxCell id="zrD310suB1USUXp1EIBQ-214" value="" style="whiteSpace=wrap;html=1;aspect=fixed;fillColor=#FFCCCC;" parent="1" vertex="1">
          <mxGeometry x="100" y="469" width="13" height="13" as="geometry" />
        </mxCell>
        <mxCell id="zrD310suB1USUXp1EIBQ-215" value="" style="whiteSpace=wrap;html=1;aspect=fixed;fillColor=#FFCCCC;" parent="1" vertex="1">
          <mxGeometry x="113" y="469" width="13" height="13" as="geometry" />
        </mxCell>
        <mxCell id="zrD310suB1USUXp1EIBQ-216" value="" style="whiteSpace=wrap;html=1;aspect=fixed;fillColor=#FFCCCC;" parent="1" vertex="1">
          <mxGeometry x="126" y="469" width="13" height="13" as="geometry" />
        </mxCell>
        <mxCell id="zrD310suB1USUXp1EIBQ-218" value="" style="ellipse;whiteSpace=wrap;html=1;aspect=fixed;fillColor=#FF0000;strokeColor=none;" parent="1" vertex="1">
          <mxGeometry x="173.5" y="454.5" width="2" height="2" as="geometry" />
        </mxCell>
        <mxCell id="zrD310suB1USUXp1EIBQ-219" value="" style="ellipse;whiteSpace=wrap;html=1;aspect=fixed;fillColor=#FF0000;strokeColor=none;" parent="1" vertex="1">
          <mxGeometry x="147.5" y="508.5" width="2" height="2" as="geometry" />
        </mxCell>
        <mxCell id="zrD310suB1USUXp1EIBQ-220" value="" style="ellipse;whiteSpace=wrap;html=1;aspect=fixed;fillColor=#0000FF;strokeColor=none;" parent="1" vertex="1">
          <mxGeometry x="105.5" y="448.5" width="2" height="2" as="geometry" />
        </mxCell>
        <mxCell id="zrD310suB1USUXp1EIBQ-221" value="" style="endArrow=none;html=1;rounded=0;entryX=0;entryY=1;entryDx=0;entryDy=0;fillColor=#fff2cc;strokeColor=#d6b656;exitX=1;exitY=0.5;exitDx=0;exitDy=0;" parent="1" target="zrD310suB1USUXp1EIBQ-218" edge="1" source="zrD310suB1USUXp1EIBQ-220">
          <mxGeometry width="50" height="50" relative="1" as="geometry">
            <mxPoint x="112" y="451.5" as="sourcePoint" />
            <mxPoint x="129" y="448.5" as="targetPoint" />
          </mxGeometry>
        </mxCell>
        <mxCell id="zrD310suB1USUXp1EIBQ-222" value="" style="endArrow=none;html=1;rounded=0;entryX=0;entryY=0;entryDx=0;entryDy=0;exitX=1;exitY=1;exitDx=0;exitDy=0;fillColor=#fff2cc;strokeColor=#d6b656;" parent="1" source="zrD310suB1USUXp1EIBQ-220" target="zrD310suB1USUXp1EIBQ-219" edge="1">
          <mxGeometry width="50" height="50" relative="1" as="geometry">
            <mxPoint x="122" y="461.5" as="sourcePoint" />
            <mxPoint x="132" y="457" as="targetPoint" />
          </mxGeometry>
        </mxCell>
        <mxCell id="zrD310suB1USUXp1EIBQ-223" value="" style="endArrow=none;html=1;rounded=0;entryX=0.5;entryY=1;entryDx=0;entryDy=0;fillColor=#fff2cc;strokeColor=#d6b656;exitX=1;exitY=0.5;exitDx=0;exitDy=0;" parent="1" target="zrD310suB1USUXp1EIBQ-218" edge="1" source="zrD310suB1USUXp1EIBQ-219">
          <mxGeometry width="50" height="50" relative="1" as="geometry">
            <mxPoint x="123" y="464" as="sourcePoint" />
            <mxPoint x="122" y="448" as="targetPoint" />
          </mxGeometry>
        </mxCell>
        <mxCell id="zrD310suB1USUXp1EIBQ-320" value="" style="whiteSpace=wrap;html=1;aspect=fixed;strokeColor=#b85450;fillColor=#f8cecc;" parent="1" vertex="1">
          <mxGeometry x="64.5" y="617" width="13" height="13" as="geometry" />
        </mxCell>
        <mxCell id="zrD310suB1USUXp1EIBQ-321" value="" style="whiteSpace=wrap;html=1;aspect=fixed;strokeColor=#b85450;fillColor=#f8cecc;" parent="1" vertex="1">
          <mxGeometry x="77.5" y="617" width="13" height="13" as="geometry" />
        </mxCell>
        <mxCell id="zrD310suB1USUXp1EIBQ-322" value="" style="whiteSpace=wrap;html=1;aspect=fixed;strokeColor=#b85450;fillColor=#f8cecc;" parent="1" vertex="1">
          <mxGeometry x="90.5" y="617" width="13" height="13" as="geometry" />
        </mxCell>
        <mxCell id="zrD310suB1USUXp1EIBQ-323" value="" style="whiteSpace=wrap;html=1;aspect=fixed;strokeColor=#b85450;fillColor=#f8cecc;" parent="1" vertex="1">
          <mxGeometry x="103.5" y="617" width="13" height="13" as="geometry" />
        </mxCell>
        <mxCell id="zrD310suB1USUXp1EIBQ-324" value="" style="whiteSpace=wrap;html=1;aspect=fixed;strokeColor=#b85450;fillColor=#f8cecc;" parent="1" vertex="1">
          <mxGeometry x="64.5" y="630" width="13" height="13" as="geometry" />
        </mxCell>
        <mxCell id="zrD310suB1USUXp1EIBQ-325" value="" style="whiteSpace=wrap;html=1;aspect=fixed;strokeColor=#b85450;fillColor=#f8cecc;" parent="1" vertex="1">
          <mxGeometry x="77.5" y="630" width="13" height="13" as="geometry" />
        </mxCell>
        <mxCell id="zrD310suB1USUXp1EIBQ-326" value="" style="whiteSpace=wrap;html=1;aspect=fixed;strokeColor=#b85450;fillColor=#f8cecc;" parent="1" vertex="1">
          <mxGeometry x="90.5" y="630" width="13" height="13" as="geometry" />
        </mxCell>
        <mxCell id="zrD310suB1USUXp1EIBQ-327" value="" style="whiteSpace=wrap;html=1;aspect=fixed;strokeColor=#b85450;fillColor=#f8cecc;" parent="1" vertex="1">
          <mxGeometry x="103.5" y="630" width="13" height="13" as="geometry" />
        </mxCell>
        <mxCell id="zrD310suB1USUXp1EIBQ-328" value="" style="whiteSpace=wrap;html=1;aspect=fixed;strokeColor=#b85450;fillColor=#f8cecc;" parent="1" vertex="1">
          <mxGeometry x="64.5" y="643" width="13" height="13" as="geometry" />
        </mxCell>
        <mxCell id="zrD310suB1USUXp1EIBQ-329" value="" style="whiteSpace=wrap;html=1;aspect=fixed;strokeColor=default;fillColor=#CCFFCC;" parent="1" vertex="1">
          <mxGeometry x="77.5" y="643" width="13" height="13" as="geometry" />
        </mxCell>
        <mxCell id="zrD310suB1USUXp1EIBQ-330" value="" style="whiteSpace=wrap;html=1;aspect=fixed;strokeColor=default;fillColor=#CCFFCC;" parent="1" vertex="1">
          <mxGeometry x="90.5" y="643" width="13" height="13" as="geometry" />
        </mxCell>
        <mxCell id="zrD310suB1USUXp1EIBQ-331" value="" style="whiteSpace=wrap;html=1;aspect=fixed;strokeColor=#b85450;fillColor=#f8cecc;" parent="1" vertex="1">
          <mxGeometry x="103.5" y="643" width="13" height="13" as="geometry" />
        </mxCell>
        <mxCell id="zrD310suB1USUXp1EIBQ-332" value="" style="whiteSpace=wrap;html=1;aspect=fixed;strokeColor=default;fillColor=#CCFFCC;" parent="1" vertex="1">
          <mxGeometry x="64.5" y="656" width="13" height="13" as="geometry" />
        </mxCell>
        <mxCell id="zrD310suB1USUXp1EIBQ-333" value="" style="whiteSpace=wrap;html=1;aspect=fixed;strokeColor=default;fillColor=#CCFFCC;" parent="1" vertex="1">
          <mxGeometry x="77.5" y="656" width="13" height="13" as="geometry" />
        </mxCell>
        <mxCell id="zrD310suB1USUXp1EIBQ-334" value="" style="whiteSpace=wrap;html=1;aspect=fixed;strokeColor=default;fillColor=#CCFFCC;" parent="1" vertex="1">
          <mxGeometry x="90.5" y="656" width="13" height="13" as="geometry" />
        </mxCell>
        <mxCell id="zrD310suB1USUXp1EIBQ-335" value="" style="whiteSpace=wrap;html=1;aspect=fixed;strokeColor=default;fillColor=#CCFFCC;" parent="1" vertex="1">
          <mxGeometry x="103.5" y="656" width="13" height="13" as="geometry" />
        </mxCell>
        <mxCell id="zrD310suB1USUXp1EIBQ-336" value="" style="ellipse;whiteSpace=wrap;html=1;aspect=fixed;fillColor=#0000FF;strokeColor=none;" parent="1" vertex="1">
          <mxGeometry x="84" y="643" width="2" height="2" as="geometry" />
        </mxCell>
        <mxCell id="zrD310suB1USUXp1EIBQ-337" value="" style="ellipse;whiteSpace=wrap;html=1;aspect=fixed;fillColor=#0000FF;strokeColor=none;" parent="1" vertex="1">
          <mxGeometry x="96.5" y="643.5" width="2" height="2" as="geometry" />
        </mxCell>
        <mxCell id="zrD310suB1USUXp1EIBQ-338" value="" style="ellipse;whiteSpace=wrap;html=1;aspect=fixed;fillColor=#FF0000;strokeColor=none;" parent="1" vertex="1">
          <mxGeometry x="91.5" y="633.5" width="2" height="2" as="geometry" />
        </mxCell>
        <mxCell id="zrD310suB1USUXp1EIBQ-339" value="" style="endArrow=none;html=1;rounded=0;entryX=0;entryY=1;entryDx=0;entryDy=0;exitX=1;exitY=0;exitDx=0;exitDy=0;fillColor=#fff2cc;strokeColor=#d6b656;" parent="1" source="zrD310suB1USUXp1EIBQ-336" target="zrD310suB1USUXp1EIBQ-338" edge="1">
          <mxGeometry width="50" height="50" relative="1" as="geometry">
            <mxPoint x="12" y="633" as="sourcePoint" />
            <mxPoint x="62" y="583" as="targetPoint" />
          </mxGeometry>
        </mxCell>
        <mxCell id="zrD310suB1USUXp1EIBQ-340" value="" style="endArrow=none;html=1;rounded=0;entryX=0.529;entryY=0.06;entryDx=0;entryDy=0;exitX=1;exitY=1;exitDx=0;exitDy=0;fillColor=#fff2cc;strokeColor=#d6b656;entryPerimeter=0;" parent="1" source="zrD310suB1USUXp1EIBQ-338" target="zrD310suB1USUXp1EIBQ-330" edge="1">
          <mxGeometry width="50" height="50" relative="1" as="geometry">
            <mxPoint x="96" y="653" as="sourcePoint" />
            <mxPoint x="103" y="645" as="targetPoint" />
          </mxGeometry>
        </mxCell>
        <mxCell id="zrD310suB1USUXp1EIBQ-341" value="" style="endArrow=none;html=1;rounded=0;exitX=0.63;exitY=0.083;exitDx=0;exitDy=0;fillColor=#fff2cc;strokeColor=#d6b656;exitPerimeter=0;" parent="1" source="zrD310suB1USUXp1EIBQ-329" edge="1">
          <mxGeometry width="50" height="50" relative="1" as="geometry">
            <mxPoint x="106" y="663" as="sourcePoint" />
            <mxPoint x="97" y="644" as="targetPoint" />
          </mxGeometry>
        </mxCell>
        <mxCell id="zrD310suB1USUXp1EIBQ-342" value="" style="ellipse;whiteSpace=wrap;html=1;aspect=fixed;fillColor=#0000FF;strokeColor=none;" parent="1" vertex="1">
          <mxGeometry x="209" y="633.5" width="2" height="2" as="geometry" />
        </mxCell>
        <mxCell id="zrD310suB1USUXp1EIBQ-343" value="" style="ellipse;whiteSpace=wrap;html=1;aspect=fixed;fillColor=#0000FF;strokeColor=none;" parent="1" vertex="1">
          <mxGeometry x="249.5" y="633" width="2" height="2" as="geometry" />
        </mxCell>
        <mxCell id="zrD310suB1USUXp1EIBQ-344" value="" style="ellipse;whiteSpace=wrap;html=1;aspect=fixed;fillColor=#FF0000;strokeColor=none;" parent="1" vertex="1">
          <mxGeometry x="223.5" y="595" width="2" height="2" as="geometry" />
        </mxCell>
        <mxCell id="zrD310suB1USUXp1EIBQ-345" value="" style="endArrow=none;html=1;rounded=0;entryX=0;entryY=1;entryDx=0;entryDy=0;exitX=1;exitY=0;exitDx=0;exitDy=0;fillColor=#fff2cc;strokeColor=#d6b656;" parent="1" source="zrD310suB1USUXp1EIBQ-342" target="zrD310suB1USUXp1EIBQ-344" edge="1">
          <mxGeometry width="50" height="50" relative="1" as="geometry">
            <mxPoint x="193" y="590.5" as="sourcePoint" />
            <mxPoint x="243" y="540.5" as="targetPoint" />
          </mxGeometry>
        </mxCell>
        <mxCell id="zrD310suB1USUXp1EIBQ-346" value="" style="endArrow=none;html=1;rounded=0;entryX=0;entryY=0.5;entryDx=0;entryDy=0;exitX=1;exitY=1;exitDx=0;exitDy=0;fillColor=#fff2cc;strokeColor=#d6b656;" parent="1" source="zrD310suB1USUXp1EIBQ-344" edge="1" target="zrD310suB1USUXp1EIBQ-343">
          <mxGeometry width="50" height="50" relative="1" as="geometry">
            <mxPoint x="277" y="610.5" as="sourcePoint" />
            <mxPoint x="278" y="601.5" as="targetPoint" />
          </mxGeometry>
        </mxCell>
        <mxCell id="zrD310suB1USUXp1EIBQ-347" value="" style="endArrow=none;html=1;rounded=0;exitX=1;exitY=1;exitDx=0;exitDy=0;fillColor=#fff2cc;strokeColor=#d6b656;entryX=0;entryY=1;entryDx=0;entryDy=0;" parent="1" edge="1" target="zrD310suB1USUXp1EIBQ-343" source="zrD310suB1USUXp1EIBQ-342">
          <mxGeometry width="50" height="50" relative="1" as="geometry">
            <mxPoint x="267" y="601.5" as="sourcePoint" />
            <mxPoint x="278" y="601.5" as="targetPoint" />
          </mxGeometry>
        </mxCell>
        <mxCell id="zrD310suB1USUXp1EIBQ-354" value="" style="ellipse;whiteSpace=wrap;html=1;aspect=fixed;fillColor=#0000FF;strokeColor=none;" parent="1" vertex="1">
          <mxGeometry x="158" y="692.5" width="2" height="2" as="geometry" />
        </mxCell>
        <mxCell id="zrD310suB1USUXp1EIBQ-355" value="" style="ellipse;whiteSpace=wrap;html=1;aspect=fixed;fillColor=#0000FF;strokeColor=none;" parent="1" vertex="1">
          <mxGeometry x="196.5" y="694" width="2" height="2" as="geometry" />
        </mxCell>
        <mxCell id="zrD310suB1USUXp1EIBQ-356" value="" style="ellipse;whiteSpace=wrap;html=1;aspect=fixed;fillColor=#FF0000;strokeColor=none;" parent="1" vertex="1">
          <mxGeometry x="208.5" y="654" width="2" height="2" as="geometry" />
        </mxCell>
        <mxCell id="zrD310suB1USUXp1EIBQ-357" value="" style="endArrow=none;html=1;rounded=0;entryX=0;entryY=1;entryDx=0;entryDy=0;exitX=1;exitY=0;exitDx=0;exitDy=0;fillColor=#fff2cc;strokeColor=#d6b656;" parent="1" source="zrD310suB1USUXp1EIBQ-354" target="zrD310suB1USUXp1EIBQ-356" edge="1">
          <mxGeometry width="50" height="50" relative="1" as="geometry">
            <mxPoint x="195" y="622.5" as="sourcePoint" />
            <mxPoint x="245" y="572.5" as="targetPoint" />
          </mxGeometry>
        </mxCell>
        <mxCell id="zrD310suB1USUXp1EIBQ-358" value="" style="endArrow=none;html=1;rounded=0;entryX=0.5;entryY=0;entryDx=0;entryDy=0;exitX=1;exitY=1;exitDx=0;exitDy=0;fillColor=#fff2cc;strokeColor=#d6b656;" parent="1" source="zrD310suB1USUXp1EIBQ-356" target="zrD310suB1USUXp1EIBQ-355" edge="1">
          <mxGeometry width="50" height="50" relative="1" as="geometry">
            <mxPoint x="279" y="642.5" as="sourcePoint" />
            <mxPoint x="280" y="633.5" as="targetPoint" />
          </mxGeometry>
        </mxCell>
        <mxCell id="zrD310suB1USUXp1EIBQ-359" value="" style="endArrow=none;html=1;rounded=0;exitX=1;exitY=0.5;exitDx=0;exitDy=0;fillColor=#fff2cc;strokeColor=#d6b656;entryX=0;entryY=0;entryDx=0;entryDy=0;" parent="1" source="zrD310suB1USUXp1EIBQ-354" target="zrD310suB1USUXp1EIBQ-355" edge="1">
          <mxGeometry width="50" height="50" relative="1" as="geometry">
            <mxPoint x="269" y="633.5" as="sourcePoint" />
            <mxPoint x="280" y="633.5" as="targetPoint" />
          </mxGeometry>
        </mxCell>
        <mxCell id="zrD310suB1USUXp1EIBQ-361" value="&lt;font style=&quot;font-size: 11px;&quot;&gt;N-1&lt;/font&gt;" style="text;html=1;align=center;verticalAlign=middle;resizable=0;points=[];autosize=1;strokeColor=none;fillColor=none;" parent="1" vertex="1">
          <mxGeometry x="261.5" y="605.5" width="37" height="26" as="geometry" />
        </mxCell>
        <mxCell id="_CxWsj8pHRZtv5aG9njl-4" value="" style="whiteSpace=wrap;html=1;aspect=fixed;strokeColor=default;fillColor=#CCFFCC;" vertex="1" parent="1">
          <mxGeometry x="100" y="430" width="13" height="13" as="geometry" />
        </mxCell>
        <mxCell id="_CxWsj8pHRZtv5aG9njl-5" value="" style="whiteSpace=wrap;html=1;aspect=fixed;fillColor=#FFCCCC;" vertex="1" parent="1">
          <mxGeometry x="235" y="482" width="52" height="52" as="geometry" />
        </mxCell>
        <mxCell id="_CxWsj8pHRZtv5aG9njl-6" value="" style="whiteSpace=wrap;html=1;aspect=fixed;fillColor=#FFCCCC;" vertex="1" parent="1">
          <mxGeometry x="287" y="482" width="52" height="52" as="geometry" />
        </mxCell>
        <mxCell id="_CxWsj8pHRZtv5aG9njl-7" value="" style="whiteSpace=wrap;html=1;aspect=fixed;fillColor=#FFCCCC;" vertex="1" parent="1">
          <mxGeometry x="287" y="430" width="52" height="52" as="geometry" />
        </mxCell>
        <mxCell id="_CxWsj8pHRZtv5aG9njl-8" value="" style="whiteSpace=wrap;html=1;aspect=fixed;strokeColor=default;fillColor=#CCFFCC;" vertex="1" parent="1">
          <mxGeometry x="235" y="430" width="13" height="13" as="geometry" />
        </mxCell>
        <mxCell id="_CxWsj8pHRZtv5aG9njl-9" value="" style="whiteSpace=wrap;html=1;aspect=fixed;fillColor=#FFCCCC;" vertex="1" parent="1">
          <mxGeometry x="261" y="430" width="13" height="13" as="geometry" />
        </mxCell>
        <mxCell id="_CxWsj8pHRZtv5aG9njl-10" value="" style="whiteSpace=wrap;html=1;aspect=fixed;fillColor=#FFCCCC;" vertex="1" parent="1">
          <mxGeometry x="274" y="430" width="13" height="13" as="geometry" />
        </mxCell>
        <mxCell id="_CxWsj8pHRZtv5aG9njl-11" value="" style="whiteSpace=wrap;html=1;aspect=fixed;strokeColor=default;fillColor=#CCFFCC;" vertex="1" parent="1">
          <mxGeometry x="235" y="443" width="13" height="13" as="geometry" />
        </mxCell>
        <mxCell id="_CxWsj8pHRZtv5aG9njl-12" value="" style="whiteSpace=wrap;html=1;aspect=fixed;strokeColor=default;fillColor=#CCFFCC;" vertex="1" parent="1">
          <mxGeometry x="248" y="443" width="13" height="13" as="geometry" />
        </mxCell>
        <mxCell id="_CxWsj8pHRZtv5aG9njl-13" value="" style="whiteSpace=wrap;html=1;aspect=fixed;fillColor=#FFCCCC;" vertex="1" parent="1">
          <mxGeometry x="261" y="443" width="13" height="13" as="geometry" />
        </mxCell>
        <mxCell id="_CxWsj8pHRZtv5aG9njl-14" value="" style="whiteSpace=wrap;html=1;aspect=fixed;fillColor=#FFCCCC;" vertex="1" parent="1">
          <mxGeometry x="274" y="443" width="13" height="13" as="geometry" />
        </mxCell>
        <mxCell id="_CxWsj8pHRZtv5aG9njl-15" value="" style="whiteSpace=wrap;html=1;aspect=fixed;strokeColor=default;fillColor=#CCFFCC;" vertex="1" parent="1">
          <mxGeometry x="235" y="456" width="13" height="13" as="geometry" />
        </mxCell>
        <mxCell id="_CxWsj8pHRZtv5aG9njl-16" value="" style="whiteSpace=wrap;html=1;aspect=fixed;strokeColor=default;fillColor=#CCFFCC;" vertex="1" parent="1">
          <mxGeometry x="248" y="456" width="13" height="13" as="geometry" />
        </mxCell>
        <mxCell id="_CxWsj8pHRZtv5aG9njl-17" value="" style="whiteSpace=wrap;html=1;aspect=fixed;fillColor=#FFCCCC;" vertex="1" parent="1">
          <mxGeometry x="261" y="456" width="13" height="13" as="geometry" />
        </mxCell>
        <mxCell id="_CxWsj8pHRZtv5aG9njl-18" value="" style="whiteSpace=wrap;html=1;aspect=fixed;fillColor=#FFCCCC;" vertex="1" parent="1">
          <mxGeometry x="274" y="456" width="13" height="13" as="geometry" />
        </mxCell>
        <mxCell id="_CxWsj8pHRZtv5aG9njl-19" value="" style="whiteSpace=wrap;html=1;aspect=fixed;strokeColor=default;fillColor=#CCFFCC;" vertex="1" parent="1">
          <mxGeometry x="235" y="469" width="13" height="13" as="geometry" />
        </mxCell>
        <mxCell id="_CxWsj8pHRZtv5aG9njl-20" value="" style="whiteSpace=wrap;html=1;aspect=fixed;fillColor=#FFCCCC;" vertex="1" parent="1">
          <mxGeometry x="248" y="469" width="13" height="13" as="geometry" />
        </mxCell>
        <mxCell id="_CxWsj8pHRZtv5aG9njl-21" value="" style="whiteSpace=wrap;html=1;aspect=fixed;fillColor=#FFCCCC;" vertex="1" parent="1">
          <mxGeometry x="261" y="469" width="13" height="13" as="geometry" />
        </mxCell>
        <mxCell id="_CxWsj8pHRZtv5aG9njl-22" value="" style="whiteSpace=wrap;html=1;aspect=fixed;fillColor=#FFCCCC;" vertex="1" parent="1">
          <mxGeometry x="274" y="469" width="13" height="13" as="geometry" />
        </mxCell>
        <mxCell id="_CxWsj8pHRZtv5aG9njl-23" value="" style="ellipse;whiteSpace=wrap;html=1;aspect=fixed;fillColor=#FF0000;strokeColor=none;" vertex="1" parent="1">
          <mxGeometry x="321.5" y="454.5" width="2" height="2" as="geometry" />
        </mxCell>
        <mxCell id="_CxWsj8pHRZtv5aG9njl-24" value="" style="ellipse;whiteSpace=wrap;html=1;aspect=fixed;fillColor=#FF0000;strokeColor=none;" vertex="1" parent="1">
          <mxGeometry x="295.5" y="508.5" width="2" height="2" as="geometry" />
        </mxCell>
        <mxCell id="_CxWsj8pHRZtv5aG9njl-25" value="" style="ellipse;whiteSpace=wrap;html=1;aspect=fixed;fillColor=#FF9999;strokeColor=none;" vertex="1" parent="1">
          <mxGeometry x="266.5" y="448.5" width="2" height="2" as="geometry" />
        </mxCell>
        <mxCell id="_CxWsj8pHRZtv5aG9njl-26" value="" style="endArrow=none;html=1;rounded=0;entryX=0;entryY=1;entryDx=0;entryDy=0;fillColor=#fff2cc;strokeColor=#d6b656;exitX=1;exitY=0.5;exitDx=0;exitDy=0;" edge="1" parent="1" source="_CxWsj8pHRZtv5aG9njl-25" target="_CxWsj8pHRZtv5aG9njl-23">
          <mxGeometry width="50" height="50" relative="1" as="geometry">
            <mxPoint x="260" y="451.5" as="sourcePoint" />
            <mxPoint x="277" y="448.5" as="targetPoint" />
          </mxGeometry>
        </mxCell>
        <mxCell id="_CxWsj8pHRZtv5aG9njl-27" value="" style="endArrow=none;html=1;rounded=0;entryX=0;entryY=0;entryDx=0;entryDy=0;fillColor=#fff2cc;strokeColor=#d6b656;exitX=1;exitY=1;exitDx=0;exitDy=0;" edge="1" parent="1" source="_CxWsj8pHRZtv5aG9njl-25" target="_CxWsj8pHRZtv5aG9njl-24">
          <mxGeometry width="50" height="50" relative="1" as="geometry">
            <mxPoint x="253" y="450" as="sourcePoint" />
            <mxPoint x="280" y="457" as="targetPoint" />
          </mxGeometry>
        </mxCell>
        <mxCell id="_CxWsj8pHRZtv5aG9njl-28" value="" style="endArrow=none;html=1;rounded=0;entryX=0.5;entryY=1;entryDx=0;entryDy=0;fillColor=#fff2cc;strokeColor=#d6b656;exitX=1;exitY=0.5;exitDx=0;exitDy=0;" edge="1" parent="1" source="_CxWsj8pHRZtv5aG9njl-24" target="_CxWsj8pHRZtv5aG9njl-23">
          <mxGeometry width="50" height="50" relative="1" as="geometry">
            <mxPoint x="271" y="464" as="sourcePoint" />
            <mxPoint x="270" y="448" as="targetPoint" />
          </mxGeometry>
        </mxCell>
        <mxCell id="_CxWsj8pHRZtv5aG9njl-29" value="" style="whiteSpace=wrap;html=1;aspect=fixed;strokeColor=default;fillColor=#CCFFCC;" vertex="1" parent="1">
          <mxGeometry x="248" y="430" width="13" height="13" as="geometry" />
        </mxCell>
        <mxCell id="_CxWsj8pHRZtv5aG9njl-30" value="" style="ellipse;whiteSpace=wrap;html=1;aspect=fixed;fillColor=#0000FF;strokeColor=none;" vertex="1" parent="1">
          <mxGeometry x="253.5" y="448.5" width="2" height="2" as="geometry" />
        </mxCell>
        <mxCell id="_CxWsj8pHRZtv5aG9njl-97" value="&lt;font style=&quot;font-size: 11px;&quot;&gt;N&lt;/font&gt;" style="text;html=1;align=center;verticalAlign=middle;resizable=0;points=[];autosize=1;strokeColor=none;fillColor=none;" vertex="1" parent="1">
          <mxGeometry x="267" y="662" width="27" height="26" as="geometry" />
        </mxCell>
        <mxCell id="_CxWsj8pHRZtv5aG9njl-100" value="" style="edgeStyle=orthogonalEdgeStyle;rounded=0;orthogonalLoop=1;jettySize=auto;html=1;" edge="1" parent="1" source="_CxWsj8pHRZtv5aG9njl-98" target="_CxWsj8pHRZtv5aG9njl-99">
          <mxGeometry relative="1" as="geometry" />
        </mxCell>
        <mxCell id="_CxWsj8pHRZtv5aG9njl-98" value="&lt;p&gt;VP Interpolation&lt;/p&gt;" style="rounded=1;whiteSpace=wrap;html=1;fillColor=#f8cecc;strokeColor=#b85450;" vertex="1" parent="1">
          <mxGeometry x="13.5" y="740" width="96" height="46" as="geometry" />
        </mxCell>
        <mxCell id="_CxWsj8pHRZtv5aG9njl-103" value="" style="edgeStyle=orthogonalEdgeStyle;rounded=0;orthogonalLoop=1;jettySize=auto;html=1;" edge="1" parent="1" source="_CxWsj8pHRZtv5aG9njl-99" target="_CxWsj8pHRZtv5aG9njl-101">
          <mxGeometry relative="1" as="geometry" />
        </mxCell>
        <mxCell id="_CxWsj8pHRZtv5aG9njl-99" value="&lt;p&gt;Frame Predication&lt;/p&gt;" style="rounded=1;whiteSpace=wrap;html=1;fillColor=#d5e8d4;strokeColor=#82b366;" vertex="1" parent="1">
          <mxGeometry x="138" y="740" width="96" height="46" as="geometry" />
        </mxCell>
        <mxCell id="_CxWsj8pHRZtv5aG9njl-104" value="" style="edgeStyle=orthogonalEdgeStyle;rounded=0;orthogonalLoop=1;jettySize=auto;html=1;" edge="1" parent="1" source="_CxWsj8pHRZtv5aG9njl-101" target="_CxWsj8pHRZtv5aG9njl-102">
          <mxGeometry relative="1" as="geometry" />
        </mxCell>
        <mxCell id="_CxWsj8pHRZtv5aG9njl-101" value="&lt;p&gt;Uniform Interpolation&lt;/p&gt;" style="rounded=1;whiteSpace=wrap;html=1;fillColor=#fff2cc;strokeColor=#d6b656;" vertex="1" parent="1">
          <mxGeometry x="261" y="740" width="96" height="46" as="geometry" />
        </mxCell>
        <mxCell id="_CxWsj8pHRZtv5aG9njl-106" value="" style="edgeStyle=orthogonalEdgeStyle;rounded=0;orthogonalLoop=1;jettySize=auto;html=1;" edge="1" parent="1" source="_CxWsj8pHRZtv5aG9njl-102" target="_CxWsj8pHRZtv5aG9njl-105">
          <mxGeometry relative="1" as="geometry" />
        </mxCell>
        <mxCell id="_CxWsj8pHRZtv5aG9njl-102" value="&lt;p&gt;Movable BasePass Opaque&lt;/p&gt;" style="rounded=1;whiteSpace=wrap;html=1;fillColor=#e1d5e7;strokeColor=#9673a6;" vertex="1" parent="1">
          <mxGeometry x="385" y="740" width="96" height="46" as="geometry" />
        </mxCell>
        <mxCell id="_CxWsj8pHRZtv5aG9njl-110" value="" style="edgeStyle=orthogonalEdgeStyle;rounded=0;orthogonalLoop=1;jettySize=auto;html=1;" edge="1" parent="1" source="_CxWsj8pHRZtv5aG9njl-105" target="_CxWsj8pHRZtv5aG9njl-109">
          <mxGeometry relative="1" as="geometry" />
        </mxCell>
        <mxCell id="_CxWsj8pHRZtv5aG9njl-105" value="&lt;p&gt;Movable BasePass Translucent&lt;/p&gt;" style="rounded=1;whiteSpace=wrap;html=1;fillColor=#e1d5e7;strokeColor=#9673a6;" vertex="1" parent="1">
          <mxGeometry x="501" y="740" width="96" height="46" as="geometry" />
        </mxCell>
        <mxCell id="_CxWsj8pHRZtv5aG9njl-107" value="post process" style="whiteSpace=wrap;html=1;fillColor=#e1d5e7;strokeColor=#9673a6;rounded=1;" vertex="1" parent="1">
          <mxGeometry x="648" y="539" width="92" height="58" as="geometry" />
        </mxCell>
        <mxCell id="_CxWsj8pHRZtv5aG9njl-112" value="" style="edgeStyle=orthogonalEdgeStyle;rounded=0;orthogonalLoop=1;jettySize=auto;html=1;" edge="1" parent="1" source="_CxWsj8pHRZtv5aG9njl-109" target="_CxWsj8pHRZtv5aG9njl-111">
          <mxGeometry relative="1" as="geometry" />
        </mxCell>
        <mxCell id="_CxWsj8pHRZtv5aG9njl-109" value="&lt;p&gt;post process&lt;br&gt;&lt;/p&gt;" style="rounded=1;whiteSpace=wrap;html=1;fillColor=#0050ef;strokeColor=#001DBC;fontColor=#ffffff;" vertex="1" parent="1">
          <mxGeometry x="616" y="740" width="96" height="46" as="geometry" />
        </mxCell>
        <mxCell id="_CxWsj8pHRZtv5aG9njl-118" style="edgeStyle=orthogonalEdgeStyle;rounded=0;orthogonalLoop=1;jettySize=auto;html=1;exitX=1;exitY=0.5;exitDx=0;exitDy=0;entryX=0.5;entryY=0;entryDx=0;entryDy=0;" edge="1" parent="1" source="_CxWsj8pHRZtv5aG9njl-111" target="_CxWsj8pHRZtv5aG9njl-114">
          <mxGeometry relative="1" as="geometry" />
        </mxCell>
        <mxCell id="_CxWsj8pHRZtv5aG9njl-111" value="&lt;p&gt;present to screen&lt;br&gt;&lt;/p&gt;" style="rounded=1;whiteSpace=wrap;html=1;fillColor=#dae8fc;strokeColor=#6c8ebf;" vertex="1" parent="1">
          <mxGeometry x="738" y="740" width="96" height="46" as="geometry" />
        </mxCell>
        <mxCell id="_CxWsj8pHRZtv5aG9njl-121" value="" style="edgeStyle=orthogonalEdgeStyle;rounded=0;orthogonalLoop=1;jettySize=auto;html=1;" edge="1" parent="1" source="_CxWsj8pHRZtv5aG9njl-114" target="_CxWsj8pHRZtv5aG9njl-115">
          <mxGeometry relative="1" as="geometry" />
        </mxCell>
        <mxCell id="_CxWsj8pHRZtv5aG9njl-114" value="&lt;p&gt;Static BasePass Opaque&lt;/p&gt;" style="rounded=1;whiteSpace=wrap;html=1;fillColor=#e1d5e7;strokeColor=#9673a6;" vertex="1" parent="1">
          <mxGeometry x="13.5" y="835" width="96" height="46" as="geometry" />
        </mxCell>
        <mxCell id="_CxWsj8pHRZtv5aG9njl-122" value="" style="edgeStyle=orthogonalEdgeStyle;rounded=0;orthogonalLoop=1;jettySize=auto;html=1;" edge="1" parent="1" source="_CxWsj8pHRZtv5aG9njl-115" target="_CxWsj8pHRZtv5aG9njl-116">
          <mxGeometry relative="1" as="geometry" />
        </mxCell>
        <mxCell id="_CxWsj8pHRZtv5aG9njl-115" value="&lt;p&gt;static&amp;nbsp;&lt;span style=&quot;background-color: initial;&quot;&gt;BasePass Translucent&lt;/span&gt;&lt;/p&gt;" style="rounded=1;whiteSpace=wrap;html=1;fillColor=#e1d5e7;strokeColor=#9673a6;" vertex="1" parent="1">
          <mxGeometry x="129.5" y="835" width="96" height="46" as="geometry" />
        </mxCell>
        <mxCell id="_CxWsj8pHRZtv5aG9njl-123" value="" style="edgeStyle=orthogonalEdgeStyle;rounded=0;orthogonalLoop=1;jettySize=auto;html=1;" edge="1" parent="1" source="_CxWsj8pHRZtv5aG9njl-116" target="_CxWsj8pHRZtv5aG9njl-119">
          <mxGeometry relative="1" as="geometry" />
        </mxCell>
        <mxCell id="_CxWsj8pHRZtv5aG9njl-116" value="&lt;p&gt;Caching&lt;/p&gt;" style="rounded=1;whiteSpace=wrap;html=1;fillColor=#d80073;strokeColor=#A50040;fontColor=#ffffff;" vertex="1" parent="1">
          <mxGeometry x="246" y="835" width="96" height="46" as="geometry" />
        </mxCell>
        <mxCell id="_CxWsj8pHRZtv5aG9njl-124" value="" style="edgeStyle=orthogonalEdgeStyle;rounded=0;orthogonalLoop=1;jettySize=auto;html=1;" edge="1" parent="1" source="_CxWsj8pHRZtv5aG9njl-119" target="_CxWsj8pHRZtv5aG9njl-120">
          <mxGeometry relative="1" as="geometry" />
        </mxCell>
        <mxCell id="_CxWsj8pHRZtv5aG9njl-119" value="&lt;p&gt;Movable BasePass Opaque&lt;/p&gt;" style="rounded=1;whiteSpace=wrap;html=1;fillColor=#e1d5e7;strokeColor=#9673a6;" vertex="1" parent="1">
          <mxGeometry x="373" y="835" width="96" height="46" as="geometry" />
        </mxCell>
        <mxCell id="_CxWsj8pHRZtv5aG9njl-126" value="" style="edgeStyle=orthogonalEdgeStyle;rounded=0;orthogonalLoop=1;jettySize=auto;html=1;" edge="1" parent="1" source="_CxWsj8pHRZtv5aG9njl-120" target="_CxWsj8pHRZtv5aG9njl-125">
          <mxGeometry relative="1" as="geometry" />
        </mxCell>
        <mxCell id="_CxWsj8pHRZtv5aG9njl-120" value="&lt;p&gt;Movable BasePass Translucent&lt;/p&gt;" style="rounded=1;whiteSpace=wrap;html=1;fillColor=#e1d5e7;strokeColor=#9673a6;" vertex="1" parent="1">
          <mxGeometry x="489" y="835" width="96" height="46" as="geometry" />
        </mxCell>
        <mxCell id="_CxWsj8pHRZtv5aG9njl-128" value="" style="edgeStyle=orthogonalEdgeStyle;rounded=0;orthogonalLoop=1;jettySize=auto;html=1;" edge="1" parent="1" source="_CxWsj8pHRZtv5aG9njl-125" target="_CxWsj8pHRZtv5aG9njl-127">
          <mxGeometry relative="1" as="geometry" />
        </mxCell>
        <mxCell id="_CxWsj8pHRZtv5aG9njl-125" value="&lt;p&gt;post process&lt;br&gt;&lt;/p&gt;" style="rounded=1;whiteSpace=wrap;html=1;fillColor=#0050ef;strokeColor=#001DBC;fontColor=#ffffff;" vertex="1" parent="1">
          <mxGeometry x="608" y="835" width="96" height="46" as="geometry" />
        </mxCell>
        <mxCell id="_CxWsj8pHRZtv5aG9njl-127" value="&lt;p&gt;present to screen&lt;br&gt;&lt;/p&gt;" style="rounded=1;whiteSpace=wrap;html=1;fillColor=#dae8fc;strokeColor=#6c8ebf;" vertex="1" parent="1">
          <mxGeometry x="732" y="835" width="96" height="46" as="geometry" />
        </mxCell>
        <mxCell id="_CxWsj8pHRZtv5aG9njl-129" value="Render Thread" style="text;html=1;align=center;verticalAlign=middle;resizable=0;points=[];autosize=1;strokeColor=none;fillColor=none;" vertex="1" parent="1">
          <mxGeometry x="-124" y="794" width="99" height="26" as="geometry" />
        </mxCell>
        <mxCell id="_CxWsj8pHRZtv5aG9njl-132" value="" style="edgeStyle=orthogonalEdgeStyle;rounded=0;orthogonalLoop=1;jettySize=auto;html=1;" edge="1" parent="1" source="_CxWsj8pHRZtv5aG9njl-130" target="_CxWsj8pHRZtv5aG9njl-131">
          <mxGeometry relative="1" as="geometry" />
        </mxCell>
        <mxCell id="_CxWsj8pHRZtv5aG9njl-130" value="&lt;p&gt;Movable BasePass Opaque&lt;/p&gt;" style="rounded=1;whiteSpace=wrap;html=1;fillColor=#e1d5e7;strokeColor=#9673a6;" vertex="1" parent="1">
          <mxGeometry x="404" y="971" width="96" height="46" as="geometry" />
        </mxCell>
        <mxCell id="_CxWsj8pHRZtv5aG9njl-140" value="" style="edgeStyle=orthogonalEdgeStyle;rounded=0;orthogonalLoop=1;jettySize=auto;html=1;" edge="1" parent="1" source="_CxWsj8pHRZtv5aG9njl-131" target="_CxWsj8pHRZtv5aG9njl-139">
          <mxGeometry relative="1" as="geometry" />
        </mxCell>
        <mxCell id="_CxWsj8pHRZtv5aG9njl-131" value="&lt;p&gt;Movable BasePass Translucent&lt;/p&gt;" style="rounded=1;whiteSpace=wrap;html=1;fillColor=#e1d5e7;strokeColor=#9673a6;" vertex="1" parent="1">
          <mxGeometry x="520" y="971" width="96" height="46" as="geometry" />
        </mxCell>
        <mxCell id="_CxWsj8pHRZtv5aG9njl-138" value="" style="edgeStyle=orthogonalEdgeStyle;rounded=0;orthogonalLoop=1;jettySize=auto;html=1;" edge="1" parent="1" source="_CxWsj8pHRZtv5aG9njl-133" target="_CxWsj8pHRZtv5aG9njl-130">
          <mxGeometry relative="1" as="geometry" />
        </mxCell>
        <mxCell id="_CxWsj8pHRZtv5aG9njl-146" value="" style="edgeStyle=orthogonalEdgeStyle;rounded=0;orthogonalLoop=1;jettySize=auto;html=1;" edge="1" parent="1" source="_CxWsj8pHRZtv5aG9njl-133" target="_CxWsj8pHRZtv5aG9njl-143">
          <mxGeometry relative="1" as="geometry">
            <Array as="points">
              <mxPoint x="337" y="1030" />
              <mxPoint x="184" y="1030" />
            </Array>
          </mxGeometry>
        </mxCell>
        <mxCell id="_CxWsj8pHRZtv5aG9njl-147" value="as input" style="edgeLabel;html=1;align=center;verticalAlign=middle;resizable=0;points=[];" vertex="1" connectable="0" parent="_CxWsj8pHRZtv5aG9njl-146">
          <mxGeometry x="0.1301" y="-2" relative="1" as="geometry">
            <mxPoint as="offset" />
          </mxGeometry>
        </mxCell>
        <mxCell id="_CxWsj8pHRZtv5aG9njl-133" value="&lt;p&gt;Caching&lt;/p&gt;" style="rounded=1;whiteSpace=wrap;html=1;fillColor=#d80073;strokeColor=#A50040;fontColor=#ffffff;" vertex="1" parent="1">
          <mxGeometry x="289" y="971" width="96" height="46" as="geometry" />
        </mxCell>
        <mxCell id="_CxWsj8pHRZtv5aG9njl-136" value="" style="edgeStyle=orthogonalEdgeStyle;rounded=0;orthogonalLoop=1;jettySize=auto;html=1;" edge="1" parent="1" source="_CxWsj8pHRZtv5aG9njl-134" target="_CxWsj8pHRZtv5aG9njl-135">
          <mxGeometry relative="1" as="geometry" />
        </mxCell>
        <mxCell id="_CxWsj8pHRZtv5aG9njl-134" value="&lt;p&gt;Static BasePass Opaque&lt;/p&gt;" style="rounded=1;whiteSpace=wrap;html=1;fillColor=#e1d5e7;strokeColor=#9673a6;" vertex="1" parent="1">
          <mxGeometry x="41.5" y="971" width="96" height="46" as="geometry" />
        </mxCell>
        <mxCell id="_CxWsj8pHRZtv5aG9njl-137" value="" style="edgeStyle=orthogonalEdgeStyle;rounded=0;orthogonalLoop=1;jettySize=auto;html=1;" edge="1" parent="1" source="_CxWsj8pHRZtv5aG9njl-135" target="_CxWsj8pHRZtv5aG9njl-133">
          <mxGeometry relative="1" as="geometry" />
        </mxCell>
        <mxCell id="_CxWsj8pHRZtv5aG9njl-135" value="&lt;p&gt;static&amp;nbsp;&lt;span style=&quot;background-color: initial;&quot;&gt;BasePass Translucent&lt;/span&gt;&lt;/p&gt;" style="rounded=1;whiteSpace=wrap;html=1;fillColor=#e1d5e7;strokeColor=#9673a6;" vertex="1" parent="1">
          <mxGeometry x="157.5" y="971" width="96" height="46" as="geometry" />
        </mxCell>
        <mxCell id="_CxWsj8pHRZtv5aG9njl-142" value="" style="edgeStyle=orthogonalEdgeStyle;rounded=0;orthogonalLoop=1;jettySize=auto;html=1;" edge="1" parent="1" source="_CxWsj8pHRZtv5aG9njl-139" target="_CxWsj8pHRZtv5aG9njl-141">
          <mxGeometry relative="1" as="geometry" />
        </mxCell>
        <mxCell id="_CxWsj8pHRZtv5aG9njl-139" value="&lt;p&gt;post process&lt;br&gt;&lt;/p&gt;" style="rounded=1;whiteSpace=wrap;html=1;fillColor=#0050ef;strokeColor=#001DBC;fontColor=#ffffff;" vertex="1" parent="1">
          <mxGeometry x="636" y="971" width="96" height="46" as="geometry" />
        </mxCell>
        <mxCell id="_CxWsj8pHRZtv5aG9njl-141" value="&lt;p&gt;present to screen&lt;br&gt;&lt;/p&gt;" style="rounded=1;whiteSpace=wrap;html=1;fillColor=#dae8fc;strokeColor=#6c8ebf;" vertex="1" parent="1">
          <mxGeometry x="758" y="971" width="96" height="46" as="geometry" />
        </mxCell>
        <mxCell id="_CxWsj8pHRZtv5aG9njl-150" value="" style="edgeStyle=orthogonalEdgeStyle;rounded=0;orthogonalLoop=1;jettySize=auto;html=1;" edge="1" parent="1" source="_CxWsj8pHRZtv5aG9njl-143" target="_CxWsj8pHRZtv5aG9njl-148">
          <mxGeometry relative="1" as="geometry" />
        </mxCell>
        <mxCell id="_CxWsj8pHRZtv5aG9njl-143" value="&lt;p&gt;Frame Predication&lt;br&gt;&lt;/p&gt;" style="rounded=1;whiteSpace=wrap;html=1;fillColor=#d5e8d4;strokeColor=#82b366;" vertex="1" parent="1">
          <mxGeometry x="86" y="1071" width="195" height="46" as="geometry" />
        </mxCell>
        <mxCell id="_CxWsj8pHRZtv5aG9njl-151" value="" style="edgeStyle=orthogonalEdgeStyle;rounded=0;orthogonalLoop=1;jettySize=auto;html=1;" edge="1" parent="1" source="_CxWsj8pHRZtv5aG9njl-148" target="_CxWsj8pHRZtv5aG9njl-149">
          <mxGeometry relative="1" as="geometry" />
        </mxCell>
        <mxCell id="_CxWsj8pHRZtv5aG9njl-148" value="&lt;p&gt;Movable BasePass Opaque&lt;/p&gt;" style="rounded=1;whiteSpace=wrap;html=1;fillColor=#e1d5e7;strokeColor=#9673a6;" vertex="1" parent="1">
          <mxGeometry x="403" y="1071" width="96" height="46" as="geometry" />
        </mxCell>
        <mxCell id="_CxWsj8pHRZtv5aG9njl-154" value="" style="edgeStyle=orthogonalEdgeStyle;rounded=0;orthogonalLoop=1;jettySize=auto;html=1;" edge="1" parent="1" source="_CxWsj8pHRZtv5aG9njl-149" target="_CxWsj8pHRZtv5aG9njl-152">
          <mxGeometry relative="1" as="geometry" />
        </mxCell>
        <mxCell id="_CxWsj8pHRZtv5aG9njl-149" value="&lt;p&gt;Movable BasePass Translucent&lt;/p&gt;" style="rounded=1;whiteSpace=wrap;html=1;fillColor=#e1d5e7;strokeColor=#9673a6;" vertex="1" parent="1">
          <mxGeometry x="521" y="1071" width="96" height="46" as="geometry" />
        </mxCell>
        <mxCell id="_CxWsj8pHRZtv5aG9njl-155" value="" style="edgeStyle=orthogonalEdgeStyle;rounded=0;orthogonalLoop=1;jettySize=auto;html=1;" edge="1" parent="1" source="_CxWsj8pHRZtv5aG9njl-152" target="_CxWsj8pHRZtv5aG9njl-153">
          <mxGeometry relative="1" as="geometry" />
        </mxCell>
        <mxCell id="_CxWsj8pHRZtv5aG9njl-152" value="&lt;p&gt;post process&lt;br&gt;&lt;/p&gt;" style="rounded=1;whiteSpace=wrap;html=1;fillColor=#0050ef;strokeColor=#001DBC;fontColor=#ffffff;" vertex="1" parent="1">
          <mxGeometry x="640" y="1071" width="96" height="46" as="geometry" />
        </mxCell>
        <mxCell id="_CxWsj8pHRZtv5aG9njl-153" value="&lt;p&gt;present to screen&lt;br&gt;&lt;/p&gt;" style="rounded=1;whiteSpace=wrap;html=1;fillColor=#dae8fc;strokeColor=#6c8ebf;" vertex="1" parent="1">
          <mxGeometry x="762" y="1071" width="96" height="46" as="geometry" />
        </mxCell>
        <mxCell id="_CxWsj8pHRZtv5aG9njl-159" value="static objects" style="text;html=1;align=center;verticalAlign=middle;resizable=0;points=[];autosize=1;strokeColor=none;fillColor=none;" vertex="1" parent="1">
          <mxGeometry x="113.5" y="937" width="87" height="26" as="geometry" />
        </mxCell>
        <mxCell id="_CxWsj8pHRZtv5aG9njl-160" value="movable objects" style="text;html=1;align=center;verticalAlign=middle;resizable=0;points=[];autosize=1;strokeColor=none;fillColor=none;" vertex="1" parent="1">
          <mxGeometry x="469" y="937" width="105" height="26" as="geometry" />
        </mxCell>
        <mxCell id="_CxWsj8pHRZtv5aG9njl-161" value="渲染帧" style="text;html=1;align=center;verticalAlign=middle;resizable=0;points=[];autosize=1;strokeColor=none;fillColor=none;" vertex="1" parent="1">
          <mxGeometry x="-34" y="978" width="54" height="26" as="geometry" />
        </mxCell>
        <mxCell id="_CxWsj8pHRZtv5aG9njl-162" value="预测帧" style="text;html=1;align=center;verticalAlign=middle;resizable=0;points=[];autosize=1;strokeColor=none;fillColor=none;" vertex="1" parent="1">
          <mxGeometry x="-34" y="1077" width="54" height="26" as="geometry" />
        </mxCell>
        <mxCell id="_CxWsj8pHRZtv5aG9njl-163" value="&lt;p&gt;Predication Frame&lt;br&gt;&lt;/p&gt;" style="rounded=1;whiteSpace=wrap;html=1;fillColor=#d5e8d4;strokeColor=#82b366;" vertex="1" parent="1">
          <mxGeometry x="-0.5" y="1232" width="103.5" height="46" as="geometry" />
        </mxCell>
        <mxCell id="_CxWsj8pHRZtv5aG9njl-164" value="&lt;p&gt;Rendering Frame&lt;br&gt;&lt;/p&gt;" style="rounded=1;whiteSpace=wrap;html=1;fillColor=#f8cecc;strokeColor=#b85450;" vertex="1" parent="1">
          <mxGeometry x="0.5" y="1177" width="274.5" height="46" as="geometry" />
        </mxCell>
        <mxCell id="_CxWsj8pHRZtv5aG9njl-165" value="&lt;p&gt;Rendering Frame&lt;br&gt;&lt;/p&gt;" style="rounded=1;whiteSpace=wrap;html=1;fillColor=#f8cecc;strokeColor=#b85450;" vertex="1" parent="1">
          <mxGeometry x="393" y="1177" width="194" height="46" as="geometry" />
        </mxCell>
        <mxCell id="_CxWsj8pHRZtv5aG9njl-166" value="&lt;p&gt;Predication Frame&lt;br&gt;&lt;/p&gt;" style="rounded=1;whiteSpace=wrap;html=1;fillColor=#d5e8d4;strokeColor=#82b366;" vertex="1" parent="1">
          <mxGeometry x="393" y="1241" width="155" height="46" as="geometry" />
        </mxCell>
        <mxCell id="_CxWsj8pHRZtv5aG9njl-167" value="" style="shape=flexArrow;endArrow=classic;html=1;rounded=0;" edge="1" parent="1">
          <mxGeometry width="50" height="50" relative="1" as="geometry">
            <mxPoint x="289" y="1229" as="sourcePoint" />
            <mxPoint x="379" y="1229" as="targetPoint" />
          </mxGeometry>
        </mxCell>
        <mxCell id="_CxWsj8pHRZtv5aG9njl-168" value="Load Balance" style="text;html=1;align=center;verticalAlign=middle;resizable=0;points=[];autosize=1;strokeColor=none;fillColor=none;" vertex="1" parent="1">
          <mxGeometry x="282" y="1193" width="91" height="26" as="geometry" />
        </mxCell>
      </root>
    </mxGraphModel>
  </diagram>
</mxfile>
